G04 (created by PCBNEW-RS274X (2011-nov-30)-stable) date Die 24 Apr 2012 19:25:18 CEST*
G01*
G70*
G90*
%MOIN*%
G04 Gerber Fmt 3.4, Leading zero omitted, Abs format*
%FSLAX34Y34*%
G04 APERTURE LIST*
%ADD10C,0.001000*%
%ADD11C,0.070000*%
%ADD12R,0.070000X0.070000*%
%ADD13R,0.060000X0.060000*%
%ADD14C,0.060000*%
%ADD15C,0.055000*%
%ADD16R,0.055000X0.055000*%
%ADD17R,0.137800X0.137800*%
%ADD18C,0.016000*%
%ADD19C,0.010000*%
G04 APERTURE END LIST*
G54D10*
G54D11*
X55300Y-38000D03*
X55300Y-37000D03*
G54D12*
X55300Y-36000D03*
G54D13*
X60600Y-31700D03*
G54D14*
X61600Y-31700D03*
X62600Y-31700D03*
G54D13*
X62600Y-33800D03*
G54D14*
X61600Y-33800D03*
X60600Y-33800D03*
G54D13*
X50469Y-39252D03*
G54D14*
X49469Y-39252D03*
G54D13*
X68028Y-39252D03*
G54D14*
X67028Y-39252D03*
G54D11*
X55300Y-33700D03*
G54D12*
X55300Y-32700D03*
G54D11*
X55300Y-31700D03*
G54D15*
X57600Y-33700D03*
X58600Y-33700D03*
X57600Y-38500D03*
X58600Y-38500D03*
X57600Y-31700D03*
X58600Y-31700D03*
G54D16*
X58100Y-37000D03*
G54D15*
X58100Y-36000D03*
G54D13*
X60600Y-37000D03*
G54D14*
X60600Y-36000D03*
G54D17*
X51400Y-35741D03*
X51400Y-33379D03*
X49550Y-34560D03*
G54D18*
X58100Y-37000D02*
X60600Y-37000D01*
X55300Y-37000D02*
X58100Y-37000D01*
X55300Y-38000D02*
X54000Y-38000D01*
X53900Y-37900D02*
X53900Y-34900D01*
X55300Y-38000D02*
X55300Y-38450D01*
X55300Y-38450D02*
X55350Y-38500D01*
X60600Y-34600D02*
X60600Y-33800D01*
X53900Y-34900D02*
X54100Y-34700D01*
X60500Y-34700D02*
X60600Y-34600D01*
X54100Y-34700D02*
X60500Y-34700D01*
X54000Y-38000D02*
X53900Y-37900D01*
X55350Y-38500D02*
X57600Y-38500D01*
X61600Y-31700D02*
X61600Y-33800D01*
X57600Y-31700D02*
X57600Y-31000D01*
X57600Y-31000D02*
X57700Y-30900D01*
X60600Y-31000D02*
X60600Y-31700D01*
X57700Y-30900D02*
X60500Y-30900D01*
X55300Y-31700D02*
X57600Y-31700D01*
X60500Y-30900D02*
X60600Y-31000D01*
X55300Y-33700D02*
X53985Y-33700D01*
X52417Y-34724D02*
X51400Y-35741D01*
X53532Y-34724D02*
X52417Y-34724D01*
X53807Y-34449D02*
X53532Y-34724D01*
X53807Y-33878D02*
X53807Y-34449D01*
X53985Y-33700D02*
X53807Y-33878D01*
X55300Y-33700D02*
X57600Y-33700D01*
G54D10*
G36*
X69175Y-39675D02*
X68546Y-39675D01*
X68577Y-39602D01*
X68577Y-39503D01*
X68578Y-39364D01*
X68578Y-39140D01*
X68577Y-39001D01*
X68577Y-38902D01*
X68539Y-38811D01*
X68469Y-38741D01*
X68377Y-38703D01*
X68140Y-38702D01*
X68078Y-38764D01*
X68078Y-39202D01*
X68516Y-39202D01*
X68578Y-39140D01*
X68578Y-39364D01*
X68516Y-39302D01*
X68128Y-39302D01*
X68078Y-39302D01*
X67978Y-39302D01*
X67978Y-39202D01*
X67978Y-39152D01*
X67978Y-38764D01*
X67916Y-38702D01*
X67679Y-38703D01*
X67587Y-38741D01*
X67517Y-38811D01*
X67479Y-38902D01*
X67479Y-38927D01*
X67339Y-38787D01*
X67137Y-38703D01*
X66919Y-38703D01*
X66717Y-38787D01*
X66563Y-38941D01*
X66479Y-39143D01*
X66479Y-39361D01*
X66563Y-39563D01*
X66675Y-39675D01*
X63149Y-39675D01*
X63149Y-34150D01*
X63149Y-34051D01*
X63149Y-33451D01*
X63111Y-33359D01*
X63041Y-33289D01*
X62950Y-33251D01*
X62851Y-33251D01*
X62251Y-33251D01*
X62159Y-33289D01*
X62089Y-33359D01*
X62051Y-33450D01*
X62051Y-33475D01*
X61930Y-33354D01*
X61930Y-32146D01*
X62065Y-32011D01*
X62100Y-31926D01*
X62135Y-32011D01*
X62289Y-32165D01*
X62491Y-32249D01*
X62709Y-32249D01*
X62911Y-32165D01*
X63065Y-32011D01*
X63149Y-31809D01*
X63149Y-31591D01*
X63065Y-31389D01*
X62911Y-31235D01*
X62709Y-31151D01*
X62491Y-31151D01*
X62289Y-31235D01*
X62135Y-31389D01*
X62100Y-31473D01*
X62065Y-31389D01*
X61911Y-31235D01*
X61709Y-31151D01*
X61491Y-31151D01*
X61289Y-31235D01*
X61149Y-31375D01*
X61149Y-31351D01*
X61111Y-31259D01*
X61041Y-31189D01*
X60950Y-31151D01*
X60930Y-31151D01*
X60930Y-31000D01*
X60905Y-30874D01*
X60904Y-30873D01*
X60880Y-30838D01*
X60833Y-30767D01*
X60833Y-30766D01*
X60733Y-30667D01*
X60627Y-30595D01*
X60500Y-30570D01*
X57700Y-30570D01*
X57574Y-30595D01*
X57538Y-30619D01*
X57466Y-30667D01*
X57367Y-30767D01*
X57295Y-30873D01*
X57270Y-31000D01*
X57270Y-31287D01*
X57187Y-31370D01*
X55811Y-31370D01*
X55808Y-31361D01*
X55639Y-31192D01*
X55419Y-31101D01*
X55181Y-31101D01*
X54961Y-31192D01*
X54792Y-31361D01*
X54701Y-31581D01*
X54701Y-31819D01*
X54792Y-32039D01*
X54867Y-32114D01*
X54809Y-32139D01*
X54739Y-32209D01*
X54701Y-32300D01*
X54701Y-32399D01*
X54700Y-32588D01*
X54762Y-32650D01*
X55200Y-32650D01*
X55250Y-32650D01*
X55350Y-32650D01*
X55400Y-32650D01*
X55838Y-32650D01*
X55900Y-32588D01*
X55899Y-32399D01*
X55899Y-32300D01*
X55861Y-32209D01*
X55791Y-32139D01*
X55732Y-32114D01*
X55808Y-32039D01*
X55811Y-32030D01*
X57187Y-32030D01*
X57302Y-32145D01*
X57495Y-32225D01*
X57704Y-32225D01*
X57897Y-32145D01*
X58045Y-31998D01*
X58103Y-31857D01*
X58148Y-31967D01*
X58239Y-31990D01*
X58529Y-31700D01*
X58239Y-31410D01*
X58148Y-31433D01*
X58106Y-31551D01*
X58045Y-31403D01*
X57930Y-31287D01*
X57930Y-31230D01*
X58377Y-31230D01*
X58333Y-31248D01*
X58310Y-31339D01*
X58600Y-31629D01*
X58890Y-31339D01*
X58867Y-31248D01*
X58815Y-31230D01*
X60118Y-31230D01*
X60089Y-31259D01*
X60051Y-31350D01*
X60051Y-31449D01*
X60051Y-32049D01*
X60089Y-32141D01*
X60159Y-32211D01*
X60250Y-32249D01*
X60349Y-32249D01*
X60949Y-32249D01*
X61041Y-32211D01*
X61111Y-32141D01*
X61149Y-32050D01*
X61149Y-32025D01*
X61270Y-32146D01*
X61270Y-33354D01*
X61135Y-33489D01*
X61100Y-33573D01*
X61065Y-33489D01*
X60911Y-33335D01*
X60709Y-33251D01*
X60491Y-33251D01*
X60289Y-33335D01*
X60135Y-33489D01*
X60051Y-33691D01*
X60051Y-33909D01*
X60135Y-34111D01*
X60270Y-34246D01*
X60270Y-34370D01*
X59119Y-34370D01*
X59119Y-33774D01*
X59119Y-31774D01*
X59108Y-31570D01*
X59052Y-31433D01*
X58961Y-31410D01*
X58671Y-31700D01*
X58961Y-31990D01*
X59052Y-31967D01*
X59119Y-31774D01*
X59119Y-33774D01*
X59108Y-33570D01*
X59052Y-33433D01*
X58961Y-33410D01*
X58890Y-33481D01*
X58890Y-33339D01*
X58890Y-32061D01*
X58600Y-31771D01*
X58310Y-32061D01*
X58333Y-32152D01*
X58526Y-32219D01*
X58730Y-32208D01*
X58867Y-32152D01*
X58890Y-32061D01*
X58890Y-33339D01*
X58867Y-33248D01*
X58674Y-33181D01*
X58470Y-33192D01*
X58333Y-33248D01*
X58310Y-33339D01*
X58600Y-33629D01*
X58890Y-33339D01*
X58890Y-33481D01*
X58671Y-33700D01*
X58961Y-33990D01*
X59052Y-33967D01*
X59119Y-33774D01*
X59119Y-34370D01*
X58890Y-34370D01*
X58890Y-34061D01*
X58600Y-33771D01*
X58310Y-34061D01*
X58333Y-34152D01*
X58526Y-34219D01*
X58730Y-34208D01*
X58867Y-34152D01*
X58890Y-34061D01*
X58890Y-34370D01*
X54137Y-34370D01*
X54137Y-34030D01*
X54788Y-34030D01*
X54792Y-34039D01*
X54961Y-34208D01*
X55181Y-34299D01*
X55419Y-34299D01*
X55639Y-34208D01*
X55808Y-34039D01*
X55811Y-34030D01*
X57187Y-34030D01*
X57302Y-34145D01*
X57495Y-34225D01*
X57704Y-34225D01*
X57897Y-34145D01*
X58045Y-33998D01*
X58103Y-33857D01*
X58148Y-33967D01*
X58239Y-33990D01*
X58529Y-33700D01*
X58239Y-33410D01*
X58148Y-33433D01*
X58106Y-33551D01*
X58045Y-33403D01*
X57898Y-33255D01*
X57705Y-33175D01*
X57496Y-33175D01*
X57303Y-33255D01*
X57187Y-33370D01*
X55811Y-33370D01*
X55808Y-33361D01*
X55732Y-33285D01*
X55791Y-33261D01*
X55861Y-33191D01*
X55899Y-33100D01*
X55899Y-33001D01*
X55900Y-32812D01*
X55838Y-32750D01*
X55400Y-32750D01*
X55350Y-32750D01*
X55250Y-32750D01*
X55200Y-32750D01*
X54762Y-32750D01*
X54700Y-32812D01*
X54701Y-33001D01*
X54701Y-33100D01*
X54739Y-33191D01*
X54809Y-33261D01*
X54867Y-33285D01*
X54792Y-33361D01*
X54788Y-33370D01*
X53985Y-33370D01*
X53859Y-33395D01*
X53823Y-33419D01*
X53751Y-33467D01*
X53574Y-33645D01*
X53502Y-33751D01*
X53477Y-33878D01*
X53477Y-34312D01*
X53395Y-34394D01*
X52417Y-34394D01*
X52339Y-34409D01*
X52339Y-33491D01*
X52339Y-33267D01*
X52338Y-32641D01*
X52300Y-32549D01*
X52230Y-32479D01*
X52139Y-32441D01*
X52040Y-32441D01*
X51512Y-32440D01*
X51450Y-32502D01*
X51450Y-33329D01*
X52277Y-33329D01*
X52339Y-33267D01*
X52339Y-33491D01*
X52277Y-33429D01*
X51450Y-33429D01*
X51450Y-34256D01*
X51512Y-34318D01*
X52040Y-34317D01*
X52139Y-34317D01*
X52230Y-34279D01*
X52300Y-34209D01*
X52338Y-34117D01*
X52339Y-33491D01*
X52339Y-34409D01*
X52311Y-34415D01*
X52290Y-34419D01*
X52183Y-34491D01*
X51871Y-34803D01*
X51350Y-34803D01*
X51350Y-34256D01*
X51350Y-33429D01*
X51350Y-33329D01*
X51350Y-32502D01*
X51288Y-32440D01*
X50760Y-32441D01*
X50661Y-32441D01*
X50570Y-32479D01*
X50500Y-32549D01*
X50462Y-32641D01*
X50461Y-33267D01*
X50523Y-33329D01*
X51350Y-33329D01*
X51350Y-33429D01*
X50523Y-33429D01*
X50461Y-33491D01*
X50461Y-33757D01*
X50450Y-33730D01*
X50380Y-33660D01*
X50289Y-33622D01*
X50190Y-33622D01*
X49662Y-33621D01*
X49600Y-33683D01*
X49600Y-34510D01*
X50427Y-34510D01*
X50489Y-34448D01*
X50488Y-34181D01*
X50500Y-34209D01*
X50570Y-34279D01*
X50661Y-34317D01*
X50760Y-34317D01*
X51288Y-34318D01*
X51350Y-34256D01*
X51350Y-34803D01*
X50662Y-34803D01*
X50570Y-34841D01*
X50500Y-34911D01*
X50488Y-34938D01*
X50489Y-34672D01*
X50427Y-34610D01*
X49600Y-34610D01*
X49600Y-35437D01*
X49662Y-35499D01*
X50190Y-35498D01*
X50289Y-35498D01*
X50380Y-35460D01*
X50450Y-35390D01*
X50462Y-35360D01*
X50462Y-36479D01*
X50500Y-36571D01*
X50570Y-36641D01*
X50661Y-36679D01*
X50760Y-36679D01*
X52138Y-36679D01*
X52230Y-36641D01*
X52300Y-36571D01*
X52338Y-36480D01*
X52338Y-36381D01*
X52338Y-35269D01*
X52553Y-35054D01*
X53532Y-35054D01*
X53570Y-35046D01*
X53570Y-37900D01*
X53595Y-38027D01*
X53667Y-38133D01*
X53766Y-38233D01*
X53767Y-38233D01*
X53838Y-38280D01*
X53873Y-38304D01*
X53874Y-38305D01*
X54000Y-38330D01*
X54788Y-38330D01*
X54792Y-38339D01*
X54961Y-38508D01*
X54983Y-38517D01*
X54995Y-38577D01*
X55067Y-38683D01*
X55116Y-38733D01*
X55117Y-38733D01*
X55188Y-38780D01*
X55223Y-38804D01*
X55224Y-38805D01*
X55349Y-38829D01*
X55350Y-38830D01*
X57187Y-38830D01*
X57302Y-38945D01*
X57495Y-39025D01*
X57704Y-39025D01*
X57897Y-38945D01*
X58045Y-38798D01*
X58103Y-38657D01*
X58148Y-38767D01*
X58239Y-38790D01*
X58529Y-38500D01*
X58239Y-38210D01*
X58148Y-38233D01*
X58106Y-38351D01*
X58045Y-38203D01*
X57898Y-38055D01*
X57705Y-37975D01*
X57496Y-37975D01*
X57303Y-38055D01*
X57187Y-38170D01*
X55877Y-38170D01*
X55899Y-38119D01*
X55899Y-37881D01*
X55808Y-37661D01*
X55647Y-37500D01*
X55808Y-37339D01*
X55811Y-37330D01*
X57578Y-37330D01*
X57614Y-37416D01*
X57684Y-37486D01*
X57775Y-37524D01*
X57874Y-37524D01*
X58424Y-37524D01*
X58516Y-37486D01*
X58586Y-37416D01*
X58621Y-37330D01*
X60051Y-37330D01*
X60051Y-37349D01*
X60089Y-37441D01*
X60159Y-37511D01*
X60250Y-37549D01*
X60349Y-37549D01*
X60949Y-37549D01*
X61041Y-37511D01*
X61111Y-37441D01*
X61149Y-37350D01*
X61149Y-37251D01*
X61149Y-36651D01*
X61143Y-36636D01*
X61143Y-36079D01*
X61132Y-35866D01*
X61072Y-35719D01*
X60978Y-35692D01*
X60908Y-35762D01*
X60908Y-35622D01*
X60881Y-35528D01*
X60679Y-35457D01*
X60466Y-35468D01*
X60319Y-35528D01*
X60292Y-35622D01*
X60600Y-35929D01*
X60908Y-35622D01*
X60908Y-35762D01*
X60671Y-36000D01*
X60978Y-36308D01*
X61072Y-36281D01*
X61143Y-36079D01*
X61143Y-36636D01*
X61111Y-36559D01*
X61041Y-36489D01*
X60950Y-36451D01*
X60887Y-36451D01*
X60908Y-36378D01*
X60600Y-36071D01*
X60529Y-36141D01*
X60529Y-36000D01*
X60222Y-35692D01*
X60128Y-35719D01*
X60057Y-35921D01*
X60068Y-36134D01*
X60128Y-36281D01*
X60222Y-36308D01*
X60529Y-36000D01*
X60529Y-36141D01*
X60292Y-36378D01*
X60312Y-36451D01*
X60251Y-36451D01*
X60159Y-36489D01*
X60089Y-36559D01*
X60051Y-36650D01*
X60051Y-36670D01*
X58621Y-36670D01*
X58619Y-36665D01*
X58619Y-36074D01*
X58608Y-35870D01*
X58552Y-35733D01*
X58461Y-35710D01*
X58390Y-35781D01*
X58390Y-35639D01*
X58367Y-35548D01*
X58174Y-35481D01*
X57970Y-35492D01*
X57833Y-35548D01*
X57810Y-35639D01*
X58100Y-35929D01*
X58390Y-35639D01*
X58390Y-35781D01*
X58171Y-36000D01*
X58461Y-36290D01*
X58552Y-36267D01*
X58619Y-36074D01*
X58619Y-36665D01*
X58586Y-36584D01*
X58516Y-36514D01*
X58425Y-36476D01*
X58326Y-36476D01*
X58308Y-36476D01*
X58367Y-36452D01*
X58390Y-36361D01*
X58100Y-36071D01*
X58029Y-36142D01*
X58029Y-36000D01*
X57739Y-35710D01*
X57648Y-35733D01*
X57581Y-35926D01*
X57592Y-36130D01*
X57648Y-36267D01*
X57739Y-36290D01*
X58029Y-36000D01*
X58029Y-36142D01*
X57810Y-36361D01*
X57833Y-36452D01*
X57902Y-36476D01*
X57776Y-36476D01*
X57684Y-36514D01*
X57614Y-36584D01*
X57578Y-36670D01*
X55811Y-36670D01*
X55808Y-36661D01*
X55732Y-36585D01*
X55791Y-36561D01*
X55861Y-36491D01*
X55899Y-36400D01*
X55899Y-36301D01*
X55900Y-36112D01*
X55900Y-35888D01*
X55899Y-35699D01*
X55899Y-35600D01*
X55861Y-35509D01*
X55791Y-35439D01*
X55699Y-35401D01*
X55412Y-35400D01*
X55350Y-35462D01*
X55350Y-35950D01*
X55838Y-35950D01*
X55900Y-35888D01*
X55900Y-36112D01*
X55838Y-36050D01*
X55400Y-36050D01*
X55350Y-36050D01*
X55250Y-36050D01*
X55250Y-35950D01*
X55250Y-35462D01*
X55188Y-35400D01*
X54901Y-35401D01*
X54809Y-35439D01*
X54739Y-35509D01*
X54701Y-35600D01*
X54701Y-35699D01*
X54700Y-35888D01*
X54762Y-35950D01*
X55250Y-35950D01*
X55250Y-36050D01*
X55200Y-36050D01*
X54762Y-36050D01*
X54700Y-36112D01*
X54701Y-36301D01*
X54701Y-36400D01*
X54739Y-36491D01*
X54809Y-36561D01*
X54867Y-36585D01*
X54792Y-36661D01*
X54701Y-36881D01*
X54701Y-37119D01*
X54792Y-37339D01*
X54953Y-37500D01*
X54792Y-37661D01*
X54788Y-37670D01*
X54230Y-37670D01*
X54230Y-35036D01*
X54236Y-35030D01*
X60500Y-35030D01*
X60626Y-35005D01*
X60627Y-35005D01*
X60733Y-34933D01*
X60833Y-34834D01*
X60833Y-34833D01*
X60880Y-34762D01*
X60904Y-34727D01*
X60905Y-34726D01*
X60929Y-34600D01*
X60930Y-34600D01*
X60930Y-34246D01*
X61065Y-34111D01*
X61100Y-34026D01*
X61135Y-34111D01*
X61289Y-34265D01*
X61491Y-34349D01*
X61709Y-34349D01*
X61911Y-34265D01*
X62051Y-34125D01*
X62051Y-34149D01*
X62089Y-34241D01*
X62159Y-34311D01*
X62250Y-34349D01*
X62349Y-34349D01*
X62949Y-34349D01*
X63041Y-34311D01*
X63111Y-34241D01*
X63149Y-34150D01*
X63149Y-39675D01*
X59119Y-39675D01*
X59119Y-38574D01*
X59108Y-38370D01*
X59052Y-38233D01*
X58961Y-38210D01*
X58890Y-38281D01*
X58890Y-38139D01*
X58867Y-38048D01*
X58674Y-37981D01*
X58470Y-37992D01*
X58333Y-38048D01*
X58310Y-38139D01*
X58600Y-38429D01*
X58890Y-38139D01*
X58890Y-38281D01*
X58671Y-38500D01*
X58961Y-38790D01*
X59052Y-38767D01*
X59119Y-38574D01*
X59119Y-39675D01*
X58890Y-39675D01*
X58890Y-38861D01*
X58600Y-38571D01*
X58310Y-38861D01*
X58333Y-38952D01*
X58526Y-39019D01*
X58730Y-39008D01*
X58867Y-38952D01*
X58890Y-38861D01*
X58890Y-39675D01*
X50987Y-39675D01*
X51018Y-39602D01*
X51018Y-39503D01*
X51019Y-39364D01*
X51019Y-39140D01*
X51018Y-39001D01*
X51018Y-38902D01*
X50980Y-38811D01*
X50910Y-38741D01*
X50818Y-38703D01*
X50581Y-38702D01*
X50519Y-38764D01*
X50519Y-39202D01*
X50957Y-39202D01*
X51019Y-39140D01*
X51019Y-39364D01*
X50957Y-39302D01*
X50569Y-39302D01*
X50519Y-39302D01*
X50419Y-39302D01*
X50419Y-39202D01*
X50419Y-39152D01*
X50419Y-38764D01*
X50357Y-38702D01*
X50120Y-38703D01*
X50028Y-38741D01*
X49958Y-38811D01*
X49920Y-38902D01*
X49920Y-38927D01*
X49780Y-38787D01*
X49578Y-38703D01*
X49500Y-38703D01*
X49500Y-35437D01*
X49500Y-34610D01*
X49500Y-34510D01*
X49500Y-33683D01*
X49438Y-33621D01*
X48910Y-33622D01*
X48811Y-33622D01*
X48720Y-33660D01*
X48650Y-33730D01*
X48612Y-33822D01*
X48611Y-34448D01*
X48673Y-34510D01*
X49500Y-34510D01*
X49500Y-34610D01*
X48673Y-34610D01*
X48611Y-34672D01*
X48612Y-35298D01*
X48650Y-35390D01*
X48720Y-35460D01*
X48811Y-35498D01*
X48910Y-35498D01*
X49438Y-35499D01*
X49500Y-35437D01*
X49500Y-38703D01*
X49360Y-38703D01*
X49158Y-38787D01*
X49004Y-38941D01*
X48920Y-39143D01*
X48920Y-39361D01*
X49004Y-39563D01*
X49116Y-39675D01*
X48325Y-39675D01*
X48325Y-30325D01*
X69175Y-30325D01*
X69175Y-39675D01*
X69175Y-39675D01*
G37*
G54D19*
X69175Y-39675D02*
X68546Y-39675D01*
X68577Y-39602D01*
X68577Y-39503D01*
X68578Y-39364D01*
X68578Y-39140D01*
X68577Y-39001D01*
X68577Y-38902D01*
X68539Y-38811D01*
X68469Y-38741D01*
X68377Y-38703D01*
X68140Y-38702D01*
X68078Y-38764D01*
X68078Y-39202D01*
X68516Y-39202D01*
X68578Y-39140D01*
X68578Y-39364D01*
X68516Y-39302D01*
X68128Y-39302D01*
X68078Y-39302D01*
X67978Y-39302D01*
X67978Y-39202D01*
X67978Y-39152D01*
X67978Y-38764D01*
X67916Y-38702D01*
X67679Y-38703D01*
X67587Y-38741D01*
X67517Y-38811D01*
X67479Y-38902D01*
X67479Y-38927D01*
X67339Y-38787D01*
X67137Y-38703D01*
X66919Y-38703D01*
X66717Y-38787D01*
X66563Y-38941D01*
X66479Y-39143D01*
X66479Y-39361D01*
X66563Y-39563D01*
X66675Y-39675D01*
X63149Y-39675D01*
X63149Y-34150D01*
X63149Y-34051D01*
X63149Y-33451D01*
X63111Y-33359D01*
X63041Y-33289D01*
X62950Y-33251D01*
X62851Y-33251D01*
X62251Y-33251D01*
X62159Y-33289D01*
X62089Y-33359D01*
X62051Y-33450D01*
X62051Y-33475D01*
X61930Y-33354D01*
X61930Y-32146D01*
X62065Y-32011D01*
X62100Y-31926D01*
X62135Y-32011D01*
X62289Y-32165D01*
X62491Y-32249D01*
X62709Y-32249D01*
X62911Y-32165D01*
X63065Y-32011D01*
X63149Y-31809D01*
X63149Y-31591D01*
X63065Y-31389D01*
X62911Y-31235D01*
X62709Y-31151D01*
X62491Y-31151D01*
X62289Y-31235D01*
X62135Y-31389D01*
X62100Y-31473D01*
X62065Y-31389D01*
X61911Y-31235D01*
X61709Y-31151D01*
X61491Y-31151D01*
X61289Y-31235D01*
X61149Y-31375D01*
X61149Y-31351D01*
X61111Y-31259D01*
X61041Y-31189D01*
X60950Y-31151D01*
X60930Y-31151D01*
X60930Y-31000D01*
X60905Y-30874D01*
X60904Y-30873D01*
X60880Y-30838D01*
X60833Y-30767D01*
X60833Y-30766D01*
X60733Y-30667D01*
X60627Y-30595D01*
X60500Y-30570D01*
X57700Y-30570D01*
X57574Y-30595D01*
X57538Y-30619D01*
X57466Y-30667D01*
X57367Y-30767D01*
X57295Y-30873D01*
X57270Y-31000D01*
X57270Y-31287D01*
X57187Y-31370D01*
X55811Y-31370D01*
X55808Y-31361D01*
X55639Y-31192D01*
X55419Y-31101D01*
X55181Y-31101D01*
X54961Y-31192D01*
X54792Y-31361D01*
X54701Y-31581D01*
X54701Y-31819D01*
X54792Y-32039D01*
X54867Y-32114D01*
X54809Y-32139D01*
X54739Y-32209D01*
X54701Y-32300D01*
X54701Y-32399D01*
X54700Y-32588D01*
X54762Y-32650D01*
X55200Y-32650D01*
X55250Y-32650D01*
X55350Y-32650D01*
X55400Y-32650D01*
X55838Y-32650D01*
X55900Y-32588D01*
X55899Y-32399D01*
X55899Y-32300D01*
X55861Y-32209D01*
X55791Y-32139D01*
X55732Y-32114D01*
X55808Y-32039D01*
X55811Y-32030D01*
X57187Y-32030D01*
X57302Y-32145D01*
X57495Y-32225D01*
X57704Y-32225D01*
X57897Y-32145D01*
X58045Y-31998D01*
X58103Y-31857D01*
X58148Y-31967D01*
X58239Y-31990D01*
X58529Y-31700D01*
X58239Y-31410D01*
X58148Y-31433D01*
X58106Y-31551D01*
X58045Y-31403D01*
X57930Y-31287D01*
X57930Y-31230D01*
X58377Y-31230D01*
X58333Y-31248D01*
X58310Y-31339D01*
X58600Y-31629D01*
X58890Y-31339D01*
X58867Y-31248D01*
X58815Y-31230D01*
X60118Y-31230D01*
X60089Y-31259D01*
X60051Y-31350D01*
X60051Y-31449D01*
X60051Y-32049D01*
X60089Y-32141D01*
X60159Y-32211D01*
X60250Y-32249D01*
X60349Y-32249D01*
X60949Y-32249D01*
X61041Y-32211D01*
X61111Y-32141D01*
X61149Y-32050D01*
X61149Y-32025D01*
X61270Y-32146D01*
X61270Y-33354D01*
X61135Y-33489D01*
X61100Y-33573D01*
X61065Y-33489D01*
X60911Y-33335D01*
X60709Y-33251D01*
X60491Y-33251D01*
X60289Y-33335D01*
X60135Y-33489D01*
X60051Y-33691D01*
X60051Y-33909D01*
X60135Y-34111D01*
X60270Y-34246D01*
X60270Y-34370D01*
X59119Y-34370D01*
X59119Y-33774D01*
X59119Y-31774D01*
X59108Y-31570D01*
X59052Y-31433D01*
X58961Y-31410D01*
X58671Y-31700D01*
X58961Y-31990D01*
X59052Y-31967D01*
X59119Y-31774D01*
X59119Y-33774D01*
X59108Y-33570D01*
X59052Y-33433D01*
X58961Y-33410D01*
X58890Y-33481D01*
X58890Y-33339D01*
X58890Y-32061D01*
X58600Y-31771D01*
X58310Y-32061D01*
X58333Y-32152D01*
X58526Y-32219D01*
X58730Y-32208D01*
X58867Y-32152D01*
X58890Y-32061D01*
X58890Y-33339D01*
X58867Y-33248D01*
X58674Y-33181D01*
X58470Y-33192D01*
X58333Y-33248D01*
X58310Y-33339D01*
X58600Y-33629D01*
X58890Y-33339D01*
X58890Y-33481D01*
X58671Y-33700D01*
X58961Y-33990D01*
X59052Y-33967D01*
X59119Y-33774D01*
X59119Y-34370D01*
X58890Y-34370D01*
X58890Y-34061D01*
X58600Y-33771D01*
X58310Y-34061D01*
X58333Y-34152D01*
X58526Y-34219D01*
X58730Y-34208D01*
X58867Y-34152D01*
X58890Y-34061D01*
X58890Y-34370D01*
X54137Y-34370D01*
X54137Y-34030D01*
X54788Y-34030D01*
X54792Y-34039D01*
X54961Y-34208D01*
X55181Y-34299D01*
X55419Y-34299D01*
X55639Y-34208D01*
X55808Y-34039D01*
X55811Y-34030D01*
X57187Y-34030D01*
X57302Y-34145D01*
X57495Y-34225D01*
X57704Y-34225D01*
X57897Y-34145D01*
X58045Y-33998D01*
X58103Y-33857D01*
X58148Y-33967D01*
X58239Y-33990D01*
X58529Y-33700D01*
X58239Y-33410D01*
X58148Y-33433D01*
X58106Y-33551D01*
X58045Y-33403D01*
X57898Y-33255D01*
X57705Y-33175D01*
X57496Y-33175D01*
X57303Y-33255D01*
X57187Y-33370D01*
X55811Y-33370D01*
X55808Y-33361D01*
X55732Y-33285D01*
X55791Y-33261D01*
X55861Y-33191D01*
X55899Y-33100D01*
X55899Y-33001D01*
X55900Y-32812D01*
X55838Y-32750D01*
X55400Y-32750D01*
X55350Y-32750D01*
X55250Y-32750D01*
X55200Y-32750D01*
X54762Y-32750D01*
X54700Y-32812D01*
X54701Y-33001D01*
X54701Y-33100D01*
X54739Y-33191D01*
X54809Y-33261D01*
X54867Y-33285D01*
X54792Y-33361D01*
X54788Y-33370D01*
X53985Y-33370D01*
X53859Y-33395D01*
X53823Y-33419D01*
X53751Y-33467D01*
X53574Y-33645D01*
X53502Y-33751D01*
X53477Y-33878D01*
X53477Y-34312D01*
X53395Y-34394D01*
X52417Y-34394D01*
X52339Y-34409D01*
X52339Y-33491D01*
X52339Y-33267D01*
X52338Y-32641D01*
X52300Y-32549D01*
X52230Y-32479D01*
X52139Y-32441D01*
X52040Y-32441D01*
X51512Y-32440D01*
X51450Y-32502D01*
X51450Y-33329D01*
X52277Y-33329D01*
X52339Y-33267D01*
X52339Y-33491D01*
X52277Y-33429D01*
X51450Y-33429D01*
X51450Y-34256D01*
X51512Y-34318D01*
X52040Y-34317D01*
X52139Y-34317D01*
X52230Y-34279D01*
X52300Y-34209D01*
X52338Y-34117D01*
X52339Y-33491D01*
X52339Y-34409D01*
X52311Y-34415D01*
X52290Y-34419D01*
X52183Y-34491D01*
X51871Y-34803D01*
X51350Y-34803D01*
X51350Y-34256D01*
X51350Y-33429D01*
X51350Y-33329D01*
X51350Y-32502D01*
X51288Y-32440D01*
X50760Y-32441D01*
X50661Y-32441D01*
X50570Y-32479D01*
X50500Y-32549D01*
X50462Y-32641D01*
X50461Y-33267D01*
X50523Y-33329D01*
X51350Y-33329D01*
X51350Y-33429D01*
X50523Y-33429D01*
X50461Y-33491D01*
X50461Y-33757D01*
X50450Y-33730D01*
X50380Y-33660D01*
X50289Y-33622D01*
X50190Y-33622D01*
X49662Y-33621D01*
X49600Y-33683D01*
X49600Y-34510D01*
X50427Y-34510D01*
X50489Y-34448D01*
X50488Y-34181D01*
X50500Y-34209D01*
X50570Y-34279D01*
X50661Y-34317D01*
X50760Y-34317D01*
X51288Y-34318D01*
X51350Y-34256D01*
X51350Y-34803D01*
X50662Y-34803D01*
X50570Y-34841D01*
X50500Y-34911D01*
X50488Y-34938D01*
X50489Y-34672D01*
X50427Y-34610D01*
X49600Y-34610D01*
X49600Y-35437D01*
X49662Y-35499D01*
X50190Y-35498D01*
X50289Y-35498D01*
X50380Y-35460D01*
X50450Y-35390D01*
X50462Y-35360D01*
X50462Y-36479D01*
X50500Y-36571D01*
X50570Y-36641D01*
X50661Y-36679D01*
X50760Y-36679D01*
X52138Y-36679D01*
X52230Y-36641D01*
X52300Y-36571D01*
X52338Y-36480D01*
X52338Y-36381D01*
X52338Y-35269D01*
X52553Y-35054D01*
X53532Y-35054D01*
X53570Y-35046D01*
X53570Y-37900D01*
X53595Y-38027D01*
X53667Y-38133D01*
X53766Y-38233D01*
X53767Y-38233D01*
X53838Y-38280D01*
X53873Y-38304D01*
X53874Y-38305D01*
X54000Y-38330D01*
X54788Y-38330D01*
X54792Y-38339D01*
X54961Y-38508D01*
X54983Y-38517D01*
X54995Y-38577D01*
X55067Y-38683D01*
X55116Y-38733D01*
X55117Y-38733D01*
X55188Y-38780D01*
X55223Y-38804D01*
X55224Y-38805D01*
X55349Y-38829D01*
X55350Y-38830D01*
X57187Y-38830D01*
X57302Y-38945D01*
X57495Y-39025D01*
X57704Y-39025D01*
X57897Y-38945D01*
X58045Y-38798D01*
X58103Y-38657D01*
X58148Y-38767D01*
X58239Y-38790D01*
X58529Y-38500D01*
X58239Y-38210D01*
X58148Y-38233D01*
X58106Y-38351D01*
X58045Y-38203D01*
X57898Y-38055D01*
X57705Y-37975D01*
X57496Y-37975D01*
X57303Y-38055D01*
X57187Y-38170D01*
X55877Y-38170D01*
X55899Y-38119D01*
X55899Y-37881D01*
X55808Y-37661D01*
X55647Y-37500D01*
X55808Y-37339D01*
X55811Y-37330D01*
X57578Y-37330D01*
X57614Y-37416D01*
X57684Y-37486D01*
X57775Y-37524D01*
X57874Y-37524D01*
X58424Y-37524D01*
X58516Y-37486D01*
X58586Y-37416D01*
X58621Y-37330D01*
X60051Y-37330D01*
X60051Y-37349D01*
X60089Y-37441D01*
X60159Y-37511D01*
X60250Y-37549D01*
X60349Y-37549D01*
X60949Y-37549D01*
X61041Y-37511D01*
X61111Y-37441D01*
X61149Y-37350D01*
X61149Y-37251D01*
X61149Y-36651D01*
X61143Y-36636D01*
X61143Y-36079D01*
X61132Y-35866D01*
X61072Y-35719D01*
X60978Y-35692D01*
X60908Y-35762D01*
X60908Y-35622D01*
X60881Y-35528D01*
X60679Y-35457D01*
X60466Y-35468D01*
X60319Y-35528D01*
X60292Y-35622D01*
X60600Y-35929D01*
X60908Y-35622D01*
X60908Y-35762D01*
X60671Y-36000D01*
X60978Y-36308D01*
X61072Y-36281D01*
X61143Y-36079D01*
X61143Y-36636D01*
X61111Y-36559D01*
X61041Y-36489D01*
X60950Y-36451D01*
X60887Y-36451D01*
X60908Y-36378D01*
X60600Y-36071D01*
X60529Y-36141D01*
X60529Y-36000D01*
X60222Y-35692D01*
X60128Y-35719D01*
X60057Y-35921D01*
X60068Y-36134D01*
X60128Y-36281D01*
X60222Y-36308D01*
X60529Y-36000D01*
X60529Y-36141D01*
X60292Y-36378D01*
X60312Y-36451D01*
X60251Y-36451D01*
X60159Y-36489D01*
X60089Y-36559D01*
X60051Y-36650D01*
X60051Y-36670D01*
X58621Y-36670D01*
X58619Y-36665D01*
X58619Y-36074D01*
X58608Y-35870D01*
X58552Y-35733D01*
X58461Y-35710D01*
X58390Y-35781D01*
X58390Y-35639D01*
X58367Y-35548D01*
X58174Y-35481D01*
X57970Y-35492D01*
X57833Y-35548D01*
X57810Y-35639D01*
X58100Y-35929D01*
X58390Y-35639D01*
X58390Y-35781D01*
X58171Y-36000D01*
X58461Y-36290D01*
X58552Y-36267D01*
X58619Y-36074D01*
X58619Y-36665D01*
X58586Y-36584D01*
X58516Y-36514D01*
X58425Y-36476D01*
X58326Y-36476D01*
X58308Y-36476D01*
X58367Y-36452D01*
X58390Y-36361D01*
X58100Y-36071D01*
X58029Y-36142D01*
X58029Y-36000D01*
X57739Y-35710D01*
X57648Y-35733D01*
X57581Y-35926D01*
X57592Y-36130D01*
X57648Y-36267D01*
X57739Y-36290D01*
X58029Y-36000D01*
X58029Y-36142D01*
X57810Y-36361D01*
X57833Y-36452D01*
X57902Y-36476D01*
X57776Y-36476D01*
X57684Y-36514D01*
X57614Y-36584D01*
X57578Y-36670D01*
X55811Y-36670D01*
X55808Y-36661D01*
X55732Y-36585D01*
X55791Y-36561D01*
X55861Y-36491D01*
X55899Y-36400D01*
X55899Y-36301D01*
X55900Y-36112D01*
X55900Y-35888D01*
X55899Y-35699D01*
X55899Y-35600D01*
X55861Y-35509D01*
X55791Y-35439D01*
X55699Y-35401D01*
X55412Y-35400D01*
X55350Y-35462D01*
X55350Y-35950D01*
X55838Y-35950D01*
X55900Y-35888D01*
X55900Y-36112D01*
X55838Y-36050D01*
X55400Y-36050D01*
X55350Y-36050D01*
X55250Y-36050D01*
X55250Y-35950D01*
X55250Y-35462D01*
X55188Y-35400D01*
X54901Y-35401D01*
X54809Y-35439D01*
X54739Y-35509D01*
X54701Y-35600D01*
X54701Y-35699D01*
X54700Y-35888D01*
X54762Y-35950D01*
X55250Y-35950D01*
X55250Y-36050D01*
X55200Y-36050D01*
X54762Y-36050D01*
X54700Y-36112D01*
X54701Y-36301D01*
X54701Y-36400D01*
X54739Y-36491D01*
X54809Y-36561D01*
X54867Y-36585D01*
X54792Y-36661D01*
X54701Y-36881D01*
X54701Y-37119D01*
X54792Y-37339D01*
X54953Y-37500D01*
X54792Y-37661D01*
X54788Y-37670D01*
X54230Y-37670D01*
X54230Y-35036D01*
X54236Y-35030D01*
X60500Y-35030D01*
X60626Y-35005D01*
X60627Y-35005D01*
X60733Y-34933D01*
X60833Y-34834D01*
X60833Y-34833D01*
X60880Y-34762D01*
X60904Y-34727D01*
X60905Y-34726D01*
X60929Y-34600D01*
X60930Y-34600D01*
X60930Y-34246D01*
X61065Y-34111D01*
X61100Y-34026D01*
X61135Y-34111D01*
X61289Y-34265D01*
X61491Y-34349D01*
X61709Y-34349D01*
X61911Y-34265D01*
X62051Y-34125D01*
X62051Y-34149D01*
X62089Y-34241D01*
X62159Y-34311D01*
X62250Y-34349D01*
X62349Y-34349D01*
X62949Y-34349D01*
X63041Y-34311D01*
X63111Y-34241D01*
X63149Y-34150D01*
X63149Y-39675D01*
X59119Y-39675D01*
X59119Y-38574D01*
X59108Y-38370D01*
X59052Y-38233D01*
X58961Y-38210D01*
X58890Y-38281D01*
X58890Y-38139D01*
X58867Y-38048D01*
X58674Y-37981D01*
X58470Y-37992D01*
X58333Y-38048D01*
X58310Y-38139D01*
X58600Y-38429D01*
X58890Y-38139D01*
X58890Y-38281D01*
X58671Y-38500D01*
X58961Y-38790D01*
X59052Y-38767D01*
X59119Y-38574D01*
X59119Y-39675D01*
X58890Y-39675D01*
X58890Y-38861D01*
X58600Y-38571D01*
X58310Y-38861D01*
X58333Y-38952D01*
X58526Y-39019D01*
X58730Y-39008D01*
X58867Y-38952D01*
X58890Y-38861D01*
X58890Y-39675D01*
X50987Y-39675D01*
X51018Y-39602D01*
X51018Y-39503D01*
X51019Y-39364D01*
X51019Y-39140D01*
X51018Y-39001D01*
X51018Y-38902D01*
X50980Y-38811D01*
X50910Y-38741D01*
X50818Y-38703D01*
X50581Y-38702D01*
X50519Y-38764D01*
X50519Y-39202D01*
X50957Y-39202D01*
X51019Y-39140D01*
X51019Y-39364D01*
X50957Y-39302D01*
X50569Y-39302D01*
X50519Y-39302D01*
X50419Y-39302D01*
X50419Y-39202D01*
X50419Y-39152D01*
X50419Y-38764D01*
X50357Y-38702D01*
X50120Y-38703D01*
X50028Y-38741D01*
X49958Y-38811D01*
X49920Y-38902D01*
X49920Y-38927D01*
X49780Y-38787D01*
X49578Y-38703D01*
X49500Y-38703D01*
X49500Y-35437D01*
X49500Y-34610D01*
X49500Y-34510D01*
X49500Y-33683D01*
X49438Y-33621D01*
X48910Y-33622D01*
X48811Y-33622D01*
X48720Y-33660D01*
X48650Y-33730D01*
X48612Y-33822D01*
X48611Y-34448D01*
X48673Y-34510D01*
X49500Y-34510D01*
X49500Y-34610D01*
X48673Y-34610D01*
X48611Y-34672D01*
X48612Y-35298D01*
X48650Y-35390D01*
X48720Y-35460D01*
X48811Y-35498D01*
X48910Y-35498D01*
X49438Y-35499D01*
X49500Y-35437D01*
X49500Y-38703D01*
X49360Y-38703D01*
X49158Y-38787D01*
X49004Y-38941D01*
X48920Y-39143D01*
X48920Y-39361D01*
X49004Y-39563D01*
X49116Y-39675D01*
X48325Y-39675D01*
X48325Y-30325D01*
X69175Y-30325D01*
X69175Y-39675D01*
M02*
