G04 (created by PCBNEW-RS274X (2011-nov-30)-stable) date Mit 25 Apr 2012 20:51:04 CEST*
G01*
G70*
G90*
%MOIN*%
G04 Gerber Fmt 3.4, Leading zero omitted, Abs format*
%FSLAX34Y34*%
G04 APERTURE LIST*
%ADD10C,0.001000*%
%ADD11C,0.070000*%
%ADD12R,0.070000X0.070000*%
%ADD13R,0.035000X0.055000*%
%ADD14R,0.060000X0.060000*%
%ADD15C,0.060000*%
%ADD16R,0.047200X0.047200*%
%ADD17C,0.055000*%
%ADD18R,0.055000X0.055000*%
%ADD19R,0.019700X0.090600*%
%ADD20R,0.078700X0.098400*%
%ADD21R,0.137800X0.137800*%
%ADD22C,0.016000*%
%ADD23C,0.010000*%
G04 APERTURE END LIST*
G54D10*
G54D11*
X55300Y-38000D03*
X55300Y-37000D03*
G54D12*
X55300Y-36000D03*
G54D13*
X62615Y-38500D03*
X61865Y-38500D03*
X62615Y-36350D03*
X61865Y-36350D03*
G54D14*
X60600Y-31700D03*
G54D15*
X61600Y-31700D03*
X62600Y-31700D03*
G54D14*
X62600Y-33800D03*
G54D15*
X61600Y-33800D03*
X60600Y-33800D03*
G54D14*
X50469Y-39252D03*
G54D15*
X49469Y-39252D03*
G54D14*
X68028Y-39252D03*
G54D15*
X67028Y-39252D03*
G54D11*
X55300Y-33700D03*
G54D12*
X55300Y-32700D03*
G54D11*
X55300Y-31700D03*
G54D16*
X61787Y-37650D03*
X62613Y-37650D03*
X61787Y-35500D03*
X62613Y-35500D03*
G54D17*
X57600Y-33700D03*
X58600Y-33700D03*
X57600Y-38500D03*
X58600Y-38500D03*
X57600Y-31700D03*
X58600Y-31700D03*
G54D18*
X58100Y-37000D03*
G54D17*
X58100Y-36000D03*
G54D14*
X60600Y-37000D03*
G54D15*
X60600Y-36000D03*
G54D19*
X67528Y-33641D03*
X67213Y-33641D03*
X66898Y-33641D03*
X66583Y-33641D03*
X66268Y-33641D03*
G54D20*
X68650Y-33602D03*
X68650Y-31437D03*
X65146Y-33602D03*
X65146Y-31437D03*
G54D21*
X51400Y-35741D03*
X51400Y-33379D03*
X49550Y-34560D03*
G54D22*
X60600Y-37000D02*
X61690Y-37000D01*
X61690Y-37000D02*
X61787Y-37097D01*
X61787Y-37097D02*
X61787Y-37650D01*
X66600Y-39400D02*
X66748Y-39252D01*
X49469Y-39252D02*
X49469Y-38431D01*
X64700Y-36400D02*
X64700Y-35300D01*
X64900Y-36600D02*
X64700Y-36400D01*
X65700Y-39400D02*
X65700Y-36700D01*
X65700Y-36700D02*
X65600Y-36600D01*
X64700Y-35300D02*
X64500Y-35100D01*
X63800Y-34800D02*
X61600Y-34800D01*
X64500Y-35100D02*
X64100Y-35100D01*
X65600Y-36600D02*
X64900Y-36600D01*
X66748Y-39252D02*
X67028Y-39252D01*
X64100Y-35100D02*
X63800Y-34800D01*
X51400Y-39400D02*
X65700Y-39400D01*
X61600Y-33800D02*
X61600Y-34700D01*
X61600Y-34800D02*
X61600Y-35313D01*
X65700Y-39400D02*
X66600Y-39400D01*
X51300Y-38400D02*
X51300Y-39300D01*
X49600Y-38300D02*
X51200Y-38300D01*
X61600Y-35313D02*
X61787Y-35500D01*
X51200Y-38300D02*
X51300Y-38400D01*
X49469Y-38431D02*
X49600Y-38300D01*
X51300Y-39300D02*
X51400Y-39400D01*
X61600Y-34700D02*
X61600Y-34800D01*
X62600Y-31700D02*
X63800Y-31700D01*
X64000Y-34300D02*
X64200Y-34500D01*
X64000Y-31900D02*
X64000Y-34300D01*
X63800Y-31700D02*
X64000Y-31900D01*
X64200Y-34500D02*
X67450Y-34500D01*
X67450Y-34500D02*
X67528Y-34422D01*
X67528Y-34422D02*
X67528Y-33641D01*
X62613Y-35500D02*
X62613Y-36348D01*
X62613Y-36348D02*
X62615Y-36350D01*
X62613Y-37650D02*
X62613Y-38498D01*
X62613Y-38498D02*
X62615Y-38500D01*
G54D10*
G36*
X50970Y-38801D02*
X50910Y-38741D01*
X50818Y-38703D01*
X50581Y-38702D01*
X50519Y-38764D01*
X50519Y-39152D01*
X50519Y-39202D01*
X50519Y-39302D01*
X50419Y-39302D01*
X50419Y-39202D01*
X50419Y-39152D01*
X50419Y-38764D01*
X50357Y-38702D01*
X50120Y-38703D01*
X50028Y-38741D01*
X49958Y-38811D01*
X49920Y-38902D01*
X49920Y-38927D01*
X49799Y-38806D01*
X49799Y-38630D01*
X50970Y-38630D01*
X50970Y-38801D01*
X50970Y-38801D01*
G37*
G54D23*
X50970Y-38801D02*
X50910Y-38741D01*
X50818Y-38703D01*
X50581Y-38702D01*
X50519Y-38764D01*
X50519Y-39152D01*
X50519Y-39202D01*
X50519Y-39302D01*
X50419Y-39302D01*
X50419Y-39202D01*
X50419Y-39152D01*
X50419Y-38764D01*
X50357Y-38702D01*
X50120Y-38703D01*
X50028Y-38741D01*
X49958Y-38811D01*
X49920Y-38902D01*
X49920Y-38927D01*
X49799Y-38806D01*
X49799Y-38630D01*
X50970Y-38630D01*
X50970Y-38801D01*
G54D10*
G36*
X69175Y-39675D02*
X68600Y-39675D01*
X68600Y-34282D01*
X68600Y-33652D01*
X68600Y-33552D01*
X68600Y-32922D01*
X68600Y-32117D01*
X68600Y-31487D01*
X68600Y-31387D01*
X68600Y-30757D01*
X68538Y-30695D01*
X68306Y-30696D01*
X68207Y-30696D01*
X68116Y-30734D01*
X68046Y-30804D01*
X68008Y-30896D01*
X68007Y-31325D01*
X68069Y-31387D01*
X68600Y-31387D01*
X68600Y-31487D01*
X68069Y-31487D01*
X68007Y-31549D01*
X68008Y-31978D01*
X68046Y-32070D01*
X68116Y-32140D01*
X68207Y-32178D01*
X68306Y-32178D01*
X68538Y-32179D01*
X68600Y-32117D01*
X68600Y-32922D01*
X68538Y-32860D01*
X68306Y-32861D01*
X68207Y-32861D01*
X68116Y-32899D01*
X68046Y-32969D01*
X68008Y-33061D01*
X68007Y-33490D01*
X68069Y-33552D01*
X68600Y-33552D01*
X68600Y-33652D01*
X68069Y-33652D01*
X68007Y-33714D01*
X68008Y-34143D01*
X68046Y-34235D01*
X68116Y-34305D01*
X68207Y-34343D01*
X68306Y-34343D01*
X68538Y-34344D01*
X68600Y-34282D01*
X68600Y-39675D01*
X68546Y-39675D01*
X68577Y-39602D01*
X68577Y-39503D01*
X68578Y-39364D01*
X68578Y-39140D01*
X68577Y-39001D01*
X68577Y-38902D01*
X68539Y-38811D01*
X68469Y-38741D01*
X68377Y-38703D01*
X68140Y-38702D01*
X68078Y-38764D01*
X68078Y-39202D01*
X68516Y-39202D01*
X68578Y-39140D01*
X68578Y-39364D01*
X68516Y-39302D01*
X68128Y-39302D01*
X68078Y-39302D01*
X67978Y-39302D01*
X67978Y-39202D01*
X67978Y-39152D01*
X67978Y-38764D01*
X67916Y-38702D01*
X67679Y-38703D01*
X67587Y-38741D01*
X67517Y-38811D01*
X67479Y-38902D01*
X67479Y-38927D01*
X67339Y-38787D01*
X67137Y-38703D01*
X66919Y-38703D01*
X66717Y-38787D01*
X66563Y-38941D01*
X66537Y-39003D01*
X66536Y-39004D01*
X66514Y-39019D01*
X66463Y-39070D01*
X66030Y-39070D01*
X66030Y-36700D01*
X66005Y-36574D01*
X66004Y-36573D01*
X65980Y-36538D01*
X65933Y-36467D01*
X65933Y-36466D01*
X65833Y-36367D01*
X65727Y-36295D01*
X65600Y-36270D01*
X65036Y-36270D01*
X65030Y-36263D01*
X65030Y-35300D01*
X65029Y-35299D01*
X65005Y-35174D01*
X65004Y-35173D01*
X64980Y-35138D01*
X64933Y-35067D01*
X64933Y-35066D01*
X64733Y-34867D01*
X64678Y-34830D01*
X67450Y-34830D01*
X67576Y-34805D01*
X67577Y-34805D01*
X67683Y-34733D01*
X67761Y-34656D01*
X67761Y-34655D01*
X67833Y-34549D01*
X67833Y-34548D01*
X67836Y-34527D01*
X67857Y-34422D01*
X67858Y-34422D01*
X67858Y-34184D01*
X67875Y-34144D01*
X67875Y-34045D01*
X67875Y-33139D01*
X67837Y-33047D01*
X67835Y-33045D01*
X67848Y-33045D01*
X68005Y-32980D01*
X68125Y-32861D01*
X68191Y-32704D01*
X68191Y-32534D01*
X68126Y-32377D01*
X68007Y-32257D01*
X67850Y-32191D01*
X67680Y-32191D01*
X67523Y-32256D01*
X67403Y-32375D01*
X67337Y-32532D01*
X67337Y-32702D01*
X67402Y-32859D01*
X67481Y-32939D01*
X67381Y-32939D01*
X67370Y-32943D01*
X67361Y-32939D01*
X67262Y-32939D01*
X67066Y-32939D01*
X67055Y-32943D01*
X67046Y-32939D01*
X66947Y-32939D01*
X66751Y-32939D01*
X66740Y-32943D01*
X66731Y-32939D01*
X66632Y-32939D01*
X66459Y-32939D01*
X66436Y-32939D01*
X66425Y-32943D01*
X66416Y-32939D01*
X66378Y-32939D01*
X66368Y-32949D01*
X66368Y-32938D01*
X66315Y-32938D01*
X66393Y-32861D01*
X66459Y-32704D01*
X66459Y-32534D01*
X66394Y-32377D01*
X66275Y-32257D01*
X66118Y-32191D01*
X65948Y-32191D01*
X65791Y-32256D01*
X65789Y-32257D01*
X65789Y-31549D01*
X65789Y-31325D01*
X65788Y-30896D01*
X65750Y-30804D01*
X65680Y-30734D01*
X65589Y-30696D01*
X65490Y-30696D01*
X65258Y-30695D01*
X65196Y-30757D01*
X65196Y-31387D01*
X65727Y-31387D01*
X65789Y-31325D01*
X65789Y-31549D01*
X65727Y-31487D01*
X65196Y-31487D01*
X65196Y-32117D01*
X65258Y-32179D01*
X65490Y-32178D01*
X65589Y-32178D01*
X65680Y-32140D01*
X65750Y-32070D01*
X65788Y-31978D01*
X65789Y-31549D01*
X65789Y-32257D01*
X65671Y-32375D01*
X65605Y-32532D01*
X65605Y-32702D01*
X65670Y-32859D01*
X65789Y-32979D01*
X65946Y-33045D01*
X65961Y-33045D01*
X65959Y-33047D01*
X65921Y-33139D01*
X65920Y-33529D01*
X65982Y-33591D01*
X66168Y-33591D01*
X66219Y-33591D01*
X66236Y-33591D01*
X66236Y-33691D01*
X66219Y-33691D01*
X66168Y-33691D01*
X65982Y-33691D01*
X65920Y-33753D01*
X65921Y-34143D01*
X65932Y-34170D01*
X65776Y-34170D01*
X65788Y-34143D01*
X65789Y-33714D01*
X65789Y-33490D01*
X65788Y-33061D01*
X65750Y-32969D01*
X65680Y-32899D01*
X65589Y-32861D01*
X65490Y-32861D01*
X65258Y-32860D01*
X65196Y-32922D01*
X65196Y-33552D01*
X65727Y-33552D01*
X65789Y-33490D01*
X65789Y-33714D01*
X65727Y-33652D01*
X65246Y-33652D01*
X65196Y-33652D01*
X65096Y-33652D01*
X65096Y-33552D01*
X65096Y-32922D01*
X65096Y-32117D01*
X65096Y-31487D01*
X65096Y-31387D01*
X65096Y-30757D01*
X65034Y-30695D01*
X64802Y-30696D01*
X64703Y-30696D01*
X64612Y-30734D01*
X64542Y-30804D01*
X64504Y-30896D01*
X64503Y-31325D01*
X64565Y-31387D01*
X65096Y-31387D01*
X65096Y-31487D01*
X64565Y-31487D01*
X64503Y-31549D01*
X64504Y-31978D01*
X64542Y-32070D01*
X64612Y-32140D01*
X64703Y-32178D01*
X64802Y-32178D01*
X65034Y-32179D01*
X65096Y-32117D01*
X65096Y-32922D01*
X65034Y-32860D01*
X64802Y-32861D01*
X64703Y-32861D01*
X64612Y-32899D01*
X64542Y-32969D01*
X64504Y-33061D01*
X64503Y-33490D01*
X64565Y-33552D01*
X65096Y-33552D01*
X65096Y-33652D01*
X65046Y-33652D01*
X64565Y-33652D01*
X64503Y-33714D01*
X64504Y-34143D01*
X64515Y-34170D01*
X64336Y-34170D01*
X64330Y-34163D01*
X64330Y-31900D01*
X64329Y-31899D01*
X64305Y-31774D01*
X64304Y-31773D01*
X64280Y-31738D01*
X64233Y-31667D01*
X64233Y-31666D01*
X64033Y-31467D01*
X63927Y-31395D01*
X63800Y-31370D01*
X63046Y-31370D01*
X62911Y-31235D01*
X62709Y-31151D01*
X62491Y-31151D01*
X62289Y-31235D01*
X62135Y-31389D01*
X62100Y-31473D01*
X62065Y-31389D01*
X61911Y-31235D01*
X61709Y-31151D01*
X61491Y-31151D01*
X61289Y-31235D01*
X61149Y-31375D01*
X61149Y-31351D01*
X61111Y-31259D01*
X61041Y-31189D01*
X60950Y-31151D01*
X60851Y-31151D01*
X60251Y-31151D01*
X60159Y-31189D01*
X60089Y-31259D01*
X60051Y-31350D01*
X60051Y-31449D01*
X60051Y-32049D01*
X60089Y-32141D01*
X60159Y-32211D01*
X60250Y-32249D01*
X60349Y-32249D01*
X60949Y-32249D01*
X61041Y-32211D01*
X61111Y-32141D01*
X61149Y-32050D01*
X61149Y-32025D01*
X61289Y-32165D01*
X61491Y-32249D01*
X61709Y-32249D01*
X61911Y-32165D01*
X62065Y-32011D01*
X62100Y-31926D01*
X62135Y-32011D01*
X62289Y-32165D01*
X62491Y-32249D01*
X62709Y-32249D01*
X62911Y-32165D01*
X63046Y-32030D01*
X63663Y-32030D01*
X63670Y-32036D01*
X63670Y-34300D01*
X63695Y-34427D01*
X63724Y-34470D01*
X61930Y-34470D01*
X61930Y-34246D01*
X62051Y-34125D01*
X62051Y-34149D01*
X62089Y-34241D01*
X62159Y-34311D01*
X62250Y-34349D01*
X62349Y-34349D01*
X62949Y-34349D01*
X63041Y-34311D01*
X63111Y-34241D01*
X63149Y-34150D01*
X63149Y-34051D01*
X63149Y-33451D01*
X63111Y-33359D01*
X63041Y-33289D01*
X62950Y-33251D01*
X62851Y-33251D01*
X62251Y-33251D01*
X62159Y-33289D01*
X62089Y-33359D01*
X62051Y-33450D01*
X62051Y-33475D01*
X61911Y-33335D01*
X61709Y-33251D01*
X61491Y-33251D01*
X61289Y-33335D01*
X61135Y-33489D01*
X61100Y-33573D01*
X61065Y-33489D01*
X60911Y-33335D01*
X60709Y-33251D01*
X60491Y-33251D01*
X60289Y-33335D01*
X60135Y-33489D01*
X60051Y-33691D01*
X60051Y-33909D01*
X60135Y-34111D01*
X60289Y-34265D01*
X60491Y-34349D01*
X60709Y-34349D01*
X60911Y-34265D01*
X61065Y-34111D01*
X61100Y-34026D01*
X61135Y-34111D01*
X61270Y-34246D01*
X61270Y-34700D01*
X61270Y-34800D01*
X61270Y-35313D01*
X61295Y-35440D01*
X61302Y-35450D01*
X61302Y-35785D01*
X61340Y-35877D01*
X61410Y-35947D01*
X61464Y-35969D01*
X61441Y-36025D01*
X61441Y-36124D01*
X61440Y-36238D01*
X61502Y-36300D01*
X61765Y-36300D01*
X61815Y-36300D01*
X61915Y-36300D01*
X61915Y-36400D01*
X61815Y-36400D01*
X61765Y-36400D01*
X61502Y-36400D01*
X61440Y-36462D01*
X61441Y-36576D01*
X61441Y-36670D01*
X61149Y-36670D01*
X61149Y-36651D01*
X61143Y-36636D01*
X61143Y-36079D01*
X61132Y-35866D01*
X61072Y-35719D01*
X60978Y-35692D01*
X60908Y-35762D01*
X60908Y-35622D01*
X60881Y-35528D01*
X60679Y-35457D01*
X60466Y-35468D01*
X60319Y-35528D01*
X60292Y-35622D01*
X60600Y-35929D01*
X60908Y-35622D01*
X60908Y-35762D01*
X60671Y-36000D01*
X60978Y-36308D01*
X61072Y-36281D01*
X61143Y-36079D01*
X61143Y-36636D01*
X61111Y-36559D01*
X61041Y-36489D01*
X60950Y-36451D01*
X60887Y-36451D01*
X60908Y-36378D01*
X60600Y-36071D01*
X60529Y-36141D01*
X60529Y-36000D01*
X60222Y-35692D01*
X60128Y-35719D01*
X60057Y-35921D01*
X60068Y-36134D01*
X60128Y-36281D01*
X60222Y-36308D01*
X60529Y-36000D01*
X60529Y-36141D01*
X60292Y-36378D01*
X60312Y-36451D01*
X60251Y-36451D01*
X60159Y-36489D01*
X60089Y-36559D01*
X60051Y-36650D01*
X60051Y-36749D01*
X60051Y-37349D01*
X60089Y-37441D01*
X60159Y-37511D01*
X60250Y-37549D01*
X60349Y-37549D01*
X60949Y-37549D01*
X61041Y-37511D01*
X61111Y-37441D01*
X61149Y-37350D01*
X61149Y-37330D01*
X61316Y-37330D01*
X61302Y-37364D01*
X61302Y-37463D01*
X61302Y-37935D01*
X61340Y-38027D01*
X61410Y-38097D01*
X61464Y-38119D01*
X61441Y-38175D01*
X61441Y-38274D01*
X61440Y-38388D01*
X61502Y-38450D01*
X61765Y-38450D01*
X61815Y-38450D01*
X61915Y-38450D01*
X61915Y-38550D01*
X61915Y-38600D01*
X61915Y-38963D01*
X61977Y-39025D01*
X62089Y-39024D01*
X62181Y-38986D01*
X62240Y-38927D01*
X62299Y-38986D01*
X62390Y-39024D01*
X62489Y-39024D01*
X62839Y-39024D01*
X62931Y-38986D01*
X63001Y-38916D01*
X63039Y-38825D01*
X63039Y-38726D01*
X63039Y-38176D01*
X63001Y-38085D01*
X63060Y-38027D01*
X63098Y-37936D01*
X63098Y-37837D01*
X63098Y-37365D01*
X63060Y-37273D01*
X62990Y-37203D01*
X62899Y-37165D01*
X62800Y-37165D01*
X62328Y-37165D01*
X62236Y-37203D01*
X62200Y-37239D01*
X62164Y-37203D01*
X62117Y-37183D01*
X62117Y-37097D01*
X62095Y-36991D01*
X62092Y-36971D01*
X62092Y-36970D01*
X62027Y-36874D01*
X62089Y-36874D01*
X62181Y-36836D01*
X62240Y-36777D01*
X62299Y-36836D01*
X62390Y-36874D01*
X62489Y-36874D01*
X62839Y-36874D01*
X62931Y-36836D01*
X63001Y-36766D01*
X63039Y-36675D01*
X63039Y-36576D01*
X63039Y-36026D01*
X63001Y-35935D01*
X63060Y-35877D01*
X63098Y-35786D01*
X63098Y-35687D01*
X63098Y-35215D01*
X63062Y-35130D01*
X63663Y-35130D01*
X63866Y-35333D01*
X63867Y-35333D01*
X63973Y-35405D01*
X63974Y-35405D01*
X63994Y-35408D01*
X64100Y-35430D01*
X64363Y-35430D01*
X64370Y-35436D01*
X64370Y-36400D01*
X64395Y-36527D01*
X64467Y-36633D01*
X64666Y-36833D01*
X64667Y-36833D01*
X64738Y-36880D01*
X64773Y-36904D01*
X64774Y-36905D01*
X64899Y-36929D01*
X64900Y-36930D01*
X65370Y-36930D01*
X65370Y-39070D01*
X61815Y-39070D01*
X61815Y-38963D01*
X61815Y-38550D01*
X61502Y-38550D01*
X61440Y-38612D01*
X61441Y-38726D01*
X61441Y-38825D01*
X61479Y-38916D01*
X61549Y-38986D01*
X61641Y-39024D01*
X61753Y-39025D01*
X61815Y-38963D01*
X61815Y-39070D01*
X59119Y-39070D01*
X59119Y-38574D01*
X59119Y-33774D01*
X59119Y-31774D01*
X59108Y-31570D01*
X59052Y-31433D01*
X58961Y-31410D01*
X58890Y-31481D01*
X58890Y-31339D01*
X58867Y-31248D01*
X58674Y-31181D01*
X58470Y-31192D01*
X58333Y-31248D01*
X58310Y-31339D01*
X58600Y-31629D01*
X58890Y-31339D01*
X58890Y-31481D01*
X58671Y-31700D01*
X58961Y-31990D01*
X59052Y-31967D01*
X59119Y-31774D01*
X59119Y-33774D01*
X59108Y-33570D01*
X59052Y-33433D01*
X58961Y-33410D01*
X58890Y-33481D01*
X58890Y-33339D01*
X58890Y-32061D01*
X58600Y-31771D01*
X58529Y-31842D01*
X58529Y-31700D01*
X58239Y-31410D01*
X58148Y-31433D01*
X58106Y-31551D01*
X58045Y-31403D01*
X57898Y-31255D01*
X57705Y-31175D01*
X57496Y-31175D01*
X57303Y-31255D01*
X57155Y-31402D01*
X57075Y-31595D01*
X57075Y-31804D01*
X57155Y-31997D01*
X57302Y-32145D01*
X57495Y-32225D01*
X57704Y-32225D01*
X57897Y-32145D01*
X58045Y-31998D01*
X58103Y-31857D01*
X58148Y-31967D01*
X58239Y-31990D01*
X58529Y-31700D01*
X58529Y-31842D01*
X58310Y-32061D01*
X58333Y-32152D01*
X58526Y-32219D01*
X58730Y-32208D01*
X58867Y-32152D01*
X58890Y-32061D01*
X58890Y-33339D01*
X58867Y-33248D01*
X58674Y-33181D01*
X58470Y-33192D01*
X58333Y-33248D01*
X58310Y-33339D01*
X58600Y-33629D01*
X58890Y-33339D01*
X58890Y-33481D01*
X58671Y-33700D01*
X58961Y-33990D01*
X59052Y-33967D01*
X59119Y-33774D01*
X59119Y-38574D01*
X59108Y-38370D01*
X59052Y-38233D01*
X58961Y-38210D01*
X58890Y-38281D01*
X58890Y-38139D01*
X58890Y-34061D01*
X58600Y-33771D01*
X58529Y-33842D01*
X58529Y-33700D01*
X58239Y-33410D01*
X58148Y-33433D01*
X58106Y-33551D01*
X58045Y-33403D01*
X57898Y-33255D01*
X57705Y-33175D01*
X57496Y-33175D01*
X57303Y-33255D01*
X57155Y-33402D01*
X57075Y-33595D01*
X57075Y-33804D01*
X57155Y-33997D01*
X57302Y-34145D01*
X57495Y-34225D01*
X57704Y-34225D01*
X57897Y-34145D01*
X58045Y-33998D01*
X58103Y-33857D01*
X58148Y-33967D01*
X58239Y-33990D01*
X58529Y-33700D01*
X58529Y-33842D01*
X58310Y-34061D01*
X58333Y-34152D01*
X58526Y-34219D01*
X58730Y-34208D01*
X58867Y-34152D01*
X58890Y-34061D01*
X58890Y-38139D01*
X58867Y-38048D01*
X58674Y-37981D01*
X58624Y-37983D01*
X58624Y-37325D01*
X58624Y-37226D01*
X58624Y-36676D01*
X58619Y-36663D01*
X58619Y-36074D01*
X58608Y-35870D01*
X58552Y-35733D01*
X58461Y-35710D01*
X58390Y-35781D01*
X58390Y-35639D01*
X58367Y-35548D01*
X58174Y-35481D01*
X57970Y-35492D01*
X57833Y-35548D01*
X57810Y-35639D01*
X58100Y-35929D01*
X58390Y-35639D01*
X58390Y-35781D01*
X58171Y-36000D01*
X58461Y-36290D01*
X58552Y-36267D01*
X58619Y-36074D01*
X58619Y-36663D01*
X58586Y-36584D01*
X58516Y-36514D01*
X58425Y-36476D01*
X58326Y-36476D01*
X58308Y-36476D01*
X58367Y-36452D01*
X58390Y-36361D01*
X58100Y-36071D01*
X58029Y-36142D01*
X58029Y-36000D01*
X57739Y-35710D01*
X57648Y-35733D01*
X57581Y-35926D01*
X57592Y-36130D01*
X57648Y-36267D01*
X57739Y-36290D01*
X58029Y-36000D01*
X58029Y-36142D01*
X57810Y-36361D01*
X57833Y-36452D01*
X57902Y-36476D01*
X57776Y-36476D01*
X57684Y-36514D01*
X57614Y-36584D01*
X57576Y-36675D01*
X57576Y-36774D01*
X57576Y-37324D01*
X57614Y-37416D01*
X57684Y-37486D01*
X57775Y-37524D01*
X57874Y-37524D01*
X58424Y-37524D01*
X58516Y-37486D01*
X58586Y-37416D01*
X58624Y-37325D01*
X58624Y-37983D01*
X58470Y-37992D01*
X58333Y-38048D01*
X58310Y-38139D01*
X58600Y-38429D01*
X58890Y-38139D01*
X58890Y-38281D01*
X58671Y-38500D01*
X58961Y-38790D01*
X59052Y-38767D01*
X59119Y-38574D01*
X59119Y-39070D01*
X58890Y-39070D01*
X58890Y-38861D01*
X58600Y-38571D01*
X58529Y-38642D01*
X58529Y-38500D01*
X58239Y-38210D01*
X58148Y-38233D01*
X58106Y-38351D01*
X58045Y-38203D01*
X57898Y-38055D01*
X57705Y-37975D01*
X57496Y-37975D01*
X57303Y-38055D01*
X57155Y-38202D01*
X57075Y-38395D01*
X57075Y-38604D01*
X57155Y-38797D01*
X57302Y-38945D01*
X57495Y-39025D01*
X57704Y-39025D01*
X57897Y-38945D01*
X58045Y-38798D01*
X58103Y-38657D01*
X58148Y-38767D01*
X58239Y-38790D01*
X58529Y-38500D01*
X58529Y-38642D01*
X58310Y-38861D01*
X58333Y-38952D01*
X58526Y-39019D01*
X58730Y-39008D01*
X58867Y-38952D01*
X58890Y-38861D01*
X58890Y-39070D01*
X55900Y-39070D01*
X55900Y-36112D01*
X55900Y-35888D01*
X55900Y-32812D01*
X55900Y-32588D01*
X55899Y-32399D01*
X55899Y-32300D01*
X55861Y-32209D01*
X55791Y-32139D01*
X55732Y-32114D01*
X55808Y-32039D01*
X55899Y-31819D01*
X55899Y-31581D01*
X55808Y-31361D01*
X55639Y-31192D01*
X55419Y-31101D01*
X55181Y-31101D01*
X54961Y-31192D01*
X54792Y-31361D01*
X54701Y-31581D01*
X54701Y-31819D01*
X54792Y-32039D01*
X54867Y-32114D01*
X54809Y-32139D01*
X54739Y-32209D01*
X54701Y-32300D01*
X54701Y-32399D01*
X54700Y-32588D01*
X54762Y-32650D01*
X55200Y-32650D01*
X55250Y-32650D01*
X55350Y-32650D01*
X55400Y-32650D01*
X55838Y-32650D01*
X55900Y-32588D01*
X55900Y-32812D01*
X55838Y-32750D01*
X55400Y-32750D01*
X55350Y-32750D01*
X55250Y-32750D01*
X55200Y-32750D01*
X54762Y-32750D01*
X54700Y-32812D01*
X54701Y-33001D01*
X54701Y-33100D01*
X54739Y-33191D01*
X54809Y-33261D01*
X54867Y-33285D01*
X54792Y-33361D01*
X54701Y-33581D01*
X54701Y-33819D01*
X54792Y-34039D01*
X54961Y-34208D01*
X55181Y-34299D01*
X55419Y-34299D01*
X55639Y-34208D01*
X55808Y-34039D01*
X55899Y-33819D01*
X55899Y-33581D01*
X55808Y-33361D01*
X55732Y-33285D01*
X55791Y-33261D01*
X55861Y-33191D01*
X55899Y-33100D01*
X55899Y-33001D01*
X55900Y-32812D01*
X55900Y-35888D01*
X55899Y-35699D01*
X55899Y-35600D01*
X55861Y-35509D01*
X55791Y-35439D01*
X55699Y-35401D01*
X55412Y-35400D01*
X55350Y-35462D01*
X55350Y-35950D01*
X55838Y-35950D01*
X55900Y-35888D01*
X55900Y-36112D01*
X55838Y-36050D01*
X55400Y-36050D01*
X55350Y-36050D01*
X55250Y-36050D01*
X55250Y-35950D01*
X55250Y-35462D01*
X55188Y-35400D01*
X54901Y-35401D01*
X54809Y-35439D01*
X54739Y-35509D01*
X54701Y-35600D01*
X54701Y-35699D01*
X54700Y-35888D01*
X54762Y-35950D01*
X55250Y-35950D01*
X55250Y-36050D01*
X55200Y-36050D01*
X54762Y-36050D01*
X54700Y-36112D01*
X54701Y-36301D01*
X54701Y-36400D01*
X54739Y-36491D01*
X54809Y-36561D01*
X54867Y-36585D01*
X54792Y-36661D01*
X54701Y-36881D01*
X54701Y-37119D01*
X54792Y-37339D01*
X54953Y-37500D01*
X54792Y-37661D01*
X54701Y-37881D01*
X54701Y-38119D01*
X54792Y-38339D01*
X54961Y-38508D01*
X55181Y-38599D01*
X55419Y-38599D01*
X55639Y-38508D01*
X55808Y-38339D01*
X55899Y-38119D01*
X55899Y-37881D01*
X55808Y-37661D01*
X55647Y-37500D01*
X55808Y-37339D01*
X55899Y-37119D01*
X55899Y-36881D01*
X55808Y-36661D01*
X55732Y-36585D01*
X55791Y-36561D01*
X55861Y-36491D01*
X55899Y-36400D01*
X55899Y-36301D01*
X55900Y-36112D01*
X55900Y-39070D01*
X52339Y-39070D01*
X52339Y-33491D01*
X52339Y-33267D01*
X52338Y-32641D01*
X52300Y-32549D01*
X52230Y-32479D01*
X52139Y-32441D01*
X52040Y-32441D01*
X51512Y-32440D01*
X51450Y-32502D01*
X51450Y-33329D01*
X52277Y-33329D01*
X52339Y-33267D01*
X52339Y-33491D01*
X52277Y-33429D01*
X51450Y-33429D01*
X51450Y-34256D01*
X51512Y-34318D01*
X52040Y-34317D01*
X52139Y-34317D01*
X52230Y-34279D01*
X52300Y-34209D01*
X52338Y-34117D01*
X52339Y-33491D01*
X52339Y-39070D01*
X52338Y-39070D01*
X52338Y-36480D01*
X52338Y-36381D01*
X52338Y-35003D01*
X52300Y-34911D01*
X52230Y-34841D01*
X52139Y-34803D01*
X52040Y-34803D01*
X51350Y-34803D01*
X51350Y-34256D01*
X51350Y-33429D01*
X51350Y-33329D01*
X51350Y-32502D01*
X51288Y-32440D01*
X50760Y-32441D01*
X50661Y-32441D01*
X50570Y-32479D01*
X50500Y-32549D01*
X50462Y-32641D01*
X50461Y-33267D01*
X50523Y-33329D01*
X51350Y-33329D01*
X51350Y-33429D01*
X50523Y-33429D01*
X50461Y-33491D01*
X50461Y-33757D01*
X50450Y-33730D01*
X50380Y-33660D01*
X50289Y-33622D01*
X50190Y-33622D01*
X49662Y-33621D01*
X49600Y-33683D01*
X49600Y-34510D01*
X50427Y-34510D01*
X50489Y-34448D01*
X50488Y-34181D01*
X50500Y-34209D01*
X50570Y-34279D01*
X50661Y-34317D01*
X50760Y-34317D01*
X51288Y-34318D01*
X51350Y-34256D01*
X51350Y-34803D01*
X50662Y-34803D01*
X50570Y-34841D01*
X50500Y-34911D01*
X50488Y-34938D01*
X50489Y-34672D01*
X50427Y-34610D01*
X49600Y-34610D01*
X49600Y-35437D01*
X49662Y-35499D01*
X50190Y-35498D01*
X50289Y-35498D01*
X50380Y-35460D01*
X50450Y-35390D01*
X50462Y-35360D01*
X50462Y-36479D01*
X50500Y-36571D01*
X50570Y-36641D01*
X50661Y-36679D01*
X50760Y-36679D01*
X52138Y-36679D01*
X52230Y-36641D01*
X52300Y-36571D01*
X52338Y-36480D01*
X52338Y-39070D01*
X51630Y-39070D01*
X51630Y-38400D01*
X51605Y-38274D01*
X51604Y-38273D01*
X51580Y-38238D01*
X51533Y-38167D01*
X51533Y-38166D01*
X51433Y-38067D01*
X51327Y-37995D01*
X51200Y-37970D01*
X49600Y-37970D01*
X49500Y-37989D01*
X49500Y-35437D01*
X49500Y-34610D01*
X49500Y-34510D01*
X49500Y-33683D01*
X49438Y-33621D01*
X48910Y-33622D01*
X48811Y-33622D01*
X48720Y-33660D01*
X48650Y-33730D01*
X48612Y-33822D01*
X48611Y-34448D01*
X48673Y-34510D01*
X49500Y-34510D01*
X49500Y-34610D01*
X48673Y-34610D01*
X48611Y-34672D01*
X48612Y-35298D01*
X48650Y-35390D01*
X48720Y-35460D01*
X48811Y-35498D01*
X48910Y-35498D01*
X49438Y-35499D01*
X49500Y-35437D01*
X49500Y-37989D01*
X49494Y-37991D01*
X49473Y-37995D01*
X49366Y-38067D01*
X49236Y-38198D01*
X49164Y-38304D01*
X49139Y-38431D01*
X49139Y-38806D01*
X49004Y-38941D01*
X48920Y-39143D01*
X48920Y-39361D01*
X49004Y-39563D01*
X49116Y-39675D01*
X48325Y-39675D01*
X48325Y-30325D01*
X69175Y-30325D01*
X69175Y-30730D01*
X69093Y-30696D01*
X68994Y-30696D01*
X68762Y-30695D01*
X68700Y-30757D01*
X68700Y-31337D01*
X68700Y-31387D01*
X68700Y-31487D01*
X68700Y-31537D01*
X68700Y-32117D01*
X68762Y-32179D01*
X68994Y-32178D01*
X69093Y-32178D01*
X69175Y-32143D01*
X69175Y-32895D01*
X69093Y-32861D01*
X68994Y-32861D01*
X68762Y-32860D01*
X68700Y-32922D01*
X68700Y-33502D01*
X68700Y-33552D01*
X68700Y-33652D01*
X68700Y-33702D01*
X68700Y-34282D01*
X68762Y-34344D01*
X68994Y-34343D01*
X69093Y-34343D01*
X69175Y-34308D01*
X69175Y-39675D01*
X69175Y-39675D01*
G37*
G54D23*
X69175Y-39675D02*
X68600Y-39675D01*
X68600Y-34282D01*
X68600Y-33652D01*
X68600Y-33552D01*
X68600Y-32922D01*
X68600Y-32117D01*
X68600Y-31487D01*
X68600Y-31387D01*
X68600Y-30757D01*
X68538Y-30695D01*
X68306Y-30696D01*
X68207Y-30696D01*
X68116Y-30734D01*
X68046Y-30804D01*
X68008Y-30896D01*
X68007Y-31325D01*
X68069Y-31387D01*
X68600Y-31387D01*
X68600Y-31487D01*
X68069Y-31487D01*
X68007Y-31549D01*
X68008Y-31978D01*
X68046Y-32070D01*
X68116Y-32140D01*
X68207Y-32178D01*
X68306Y-32178D01*
X68538Y-32179D01*
X68600Y-32117D01*
X68600Y-32922D01*
X68538Y-32860D01*
X68306Y-32861D01*
X68207Y-32861D01*
X68116Y-32899D01*
X68046Y-32969D01*
X68008Y-33061D01*
X68007Y-33490D01*
X68069Y-33552D01*
X68600Y-33552D01*
X68600Y-33652D01*
X68069Y-33652D01*
X68007Y-33714D01*
X68008Y-34143D01*
X68046Y-34235D01*
X68116Y-34305D01*
X68207Y-34343D01*
X68306Y-34343D01*
X68538Y-34344D01*
X68600Y-34282D01*
X68600Y-39675D01*
X68546Y-39675D01*
X68577Y-39602D01*
X68577Y-39503D01*
X68578Y-39364D01*
X68578Y-39140D01*
X68577Y-39001D01*
X68577Y-38902D01*
X68539Y-38811D01*
X68469Y-38741D01*
X68377Y-38703D01*
X68140Y-38702D01*
X68078Y-38764D01*
X68078Y-39202D01*
X68516Y-39202D01*
X68578Y-39140D01*
X68578Y-39364D01*
X68516Y-39302D01*
X68128Y-39302D01*
X68078Y-39302D01*
X67978Y-39302D01*
X67978Y-39202D01*
X67978Y-39152D01*
X67978Y-38764D01*
X67916Y-38702D01*
X67679Y-38703D01*
X67587Y-38741D01*
X67517Y-38811D01*
X67479Y-38902D01*
X67479Y-38927D01*
X67339Y-38787D01*
X67137Y-38703D01*
X66919Y-38703D01*
X66717Y-38787D01*
X66563Y-38941D01*
X66537Y-39003D01*
X66536Y-39004D01*
X66514Y-39019D01*
X66463Y-39070D01*
X66030Y-39070D01*
X66030Y-36700D01*
X66005Y-36574D01*
X66004Y-36573D01*
X65980Y-36538D01*
X65933Y-36467D01*
X65933Y-36466D01*
X65833Y-36367D01*
X65727Y-36295D01*
X65600Y-36270D01*
X65036Y-36270D01*
X65030Y-36263D01*
X65030Y-35300D01*
X65029Y-35299D01*
X65005Y-35174D01*
X65004Y-35173D01*
X64980Y-35138D01*
X64933Y-35067D01*
X64933Y-35066D01*
X64733Y-34867D01*
X64678Y-34830D01*
X67450Y-34830D01*
X67576Y-34805D01*
X67577Y-34805D01*
X67683Y-34733D01*
X67761Y-34656D01*
X67761Y-34655D01*
X67833Y-34549D01*
X67833Y-34548D01*
X67836Y-34527D01*
X67857Y-34422D01*
X67858Y-34422D01*
X67858Y-34184D01*
X67875Y-34144D01*
X67875Y-34045D01*
X67875Y-33139D01*
X67837Y-33047D01*
X67835Y-33045D01*
X67848Y-33045D01*
X68005Y-32980D01*
X68125Y-32861D01*
X68191Y-32704D01*
X68191Y-32534D01*
X68126Y-32377D01*
X68007Y-32257D01*
X67850Y-32191D01*
X67680Y-32191D01*
X67523Y-32256D01*
X67403Y-32375D01*
X67337Y-32532D01*
X67337Y-32702D01*
X67402Y-32859D01*
X67481Y-32939D01*
X67381Y-32939D01*
X67370Y-32943D01*
X67361Y-32939D01*
X67262Y-32939D01*
X67066Y-32939D01*
X67055Y-32943D01*
X67046Y-32939D01*
X66947Y-32939D01*
X66751Y-32939D01*
X66740Y-32943D01*
X66731Y-32939D01*
X66632Y-32939D01*
X66459Y-32939D01*
X66436Y-32939D01*
X66425Y-32943D01*
X66416Y-32939D01*
X66378Y-32939D01*
X66368Y-32949D01*
X66368Y-32938D01*
X66315Y-32938D01*
X66393Y-32861D01*
X66459Y-32704D01*
X66459Y-32534D01*
X66394Y-32377D01*
X66275Y-32257D01*
X66118Y-32191D01*
X65948Y-32191D01*
X65791Y-32256D01*
X65789Y-32257D01*
X65789Y-31549D01*
X65789Y-31325D01*
X65788Y-30896D01*
X65750Y-30804D01*
X65680Y-30734D01*
X65589Y-30696D01*
X65490Y-30696D01*
X65258Y-30695D01*
X65196Y-30757D01*
X65196Y-31387D01*
X65727Y-31387D01*
X65789Y-31325D01*
X65789Y-31549D01*
X65727Y-31487D01*
X65196Y-31487D01*
X65196Y-32117D01*
X65258Y-32179D01*
X65490Y-32178D01*
X65589Y-32178D01*
X65680Y-32140D01*
X65750Y-32070D01*
X65788Y-31978D01*
X65789Y-31549D01*
X65789Y-32257D01*
X65671Y-32375D01*
X65605Y-32532D01*
X65605Y-32702D01*
X65670Y-32859D01*
X65789Y-32979D01*
X65946Y-33045D01*
X65961Y-33045D01*
X65959Y-33047D01*
X65921Y-33139D01*
X65920Y-33529D01*
X65982Y-33591D01*
X66168Y-33591D01*
X66219Y-33591D01*
X66236Y-33591D01*
X66236Y-33691D01*
X66219Y-33691D01*
X66168Y-33691D01*
X65982Y-33691D01*
X65920Y-33753D01*
X65921Y-34143D01*
X65932Y-34170D01*
X65776Y-34170D01*
X65788Y-34143D01*
X65789Y-33714D01*
X65789Y-33490D01*
X65788Y-33061D01*
X65750Y-32969D01*
X65680Y-32899D01*
X65589Y-32861D01*
X65490Y-32861D01*
X65258Y-32860D01*
X65196Y-32922D01*
X65196Y-33552D01*
X65727Y-33552D01*
X65789Y-33490D01*
X65789Y-33714D01*
X65727Y-33652D01*
X65246Y-33652D01*
X65196Y-33652D01*
X65096Y-33652D01*
X65096Y-33552D01*
X65096Y-32922D01*
X65096Y-32117D01*
X65096Y-31487D01*
X65096Y-31387D01*
X65096Y-30757D01*
X65034Y-30695D01*
X64802Y-30696D01*
X64703Y-30696D01*
X64612Y-30734D01*
X64542Y-30804D01*
X64504Y-30896D01*
X64503Y-31325D01*
X64565Y-31387D01*
X65096Y-31387D01*
X65096Y-31487D01*
X64565Y-31487D01*
X64503Y-31549D01*
X64504Y-31978D01*
X64542Y-32070D01*
X64612Y-32140D01*
X64703Y-32178D01*
X64802Y-32178D01*
X65034Y-32179D01*
X65096Y-32117D01*
X65096Y-32922D01*
X65034Y-32860D01*
X64802Y-32861D01*
X64703Y-32861D01*
X64612Y-32899D01*
X64542Y-32969D01*
X64504Y-33061D01*
X64503Y-33490D01*
X64565Y-33552D01*
X65096Y-33552D01*
X65096Y-33652D01*
X65046Y-33652D01*
X64565Y-33652D01*
X64503Y-33714D01*
X64504Y-34143D01*
X64515Y-34170D01*
X64336Y-34170D01*
X64330Y-34163D01*
X64330Y-31900D01*
X64329Y-31899D01*
X64305Y-31774D01*
X64304Y-31773D01*
X64280Y-31738D01*
X64233Y-31667D01*
X64233Y-31666D01*
X64033Y-31467D01*
X63927Y-31395D01*
X63800Y-31370D01*
X63046Y-31370D01*
X62911Y-31235D01*
X62709Y-31151D01*
X62491Y-31151D01*
X62289Y-31235D01*
X62135Y-31389D01*
X62100Y-31473D01*
X62065Y-31389D01*
X61911Y-31235D01*
X61709Y-31151D01*
X61491Y-31151D01*
X61289Y-31235D01*
X61149Y-31375D01*
X61149Y-31351D01*
X61111Y-31259D01*
X61041Y-31189D01*
X60950Y-31151D01*
X60851Y-31151D01*
X60251Y-31151D01*
X60159Y-31189D01*
X60089Y-31259D01*
X60051Y-31350D01*
X60051Y-31449D01*
X60051Y-32049D01*
X60089Y-32141D01*
X60159Y-32211D01*
X60250Y-32249D01*
X60349Y-32249D01*
X60949Y-32249D01*
X61041Y-32211D01*
X61111Y-32141D01*
X61149Y-32050D01*
X61149Y-32025D01*
X61289Y-32165D01*
X61491Y-32249D01*
X61709Y-32249D01*
X61911Y-32165D01*
X62065Y-32011D01*
X62100Y-31926D01*
X62135Y-32011D01*
X62289Y-32165D01*
X62491Y-32249D01*
X62709Y-32249D01*
X62911Y-32165D01*
X63046Y-32030D01*
X63663Y-32030D01*
X63670Y-32036D01*
X63670Y-34300D01*
X63695Y-34427D01*
X63724Y-34470D01*
X61930Y-34470D01*
X61930Y-34246D01*
X62051Y-34125D01*
X62051Y-34149D01*
X62089Y-34241D01*
X62159Y-34311D01*
X62250Y-34349D01*
X62349Y-34349D01*
X62949Y-34349D01*
X63041Y-34311D01*
X63111Y-34241D01*
X63149Y-34150D01*
X63149Y-34051D01*
X63149Y-33451D01*
X63111Y-33359D01*
X63041Y-33289D01*
X62950Y-33251D01*
X62851Y-33251D01*
X62251Y-33251D01*
X62159Y-33289D01*
X62089Y-33359D01*
X62051Y-33450D01*
X62051Y-33475D01*
X61911Y-33335D01*
X61709Y-33251D01*
X61491Y-33251D01*
X61289Y-33335D01*
X61135Y-33489D01*
X61100Y-33573D01*
X61065Y-33489D01*
X60911Y-33335D01*
X60709Y-33251D01*
X60491Y-33251D01*
X60289Y-33335D01*
X60135Y-33489D01*
X60051Y-33691D01*
X60051Y-33909D01*
X60135Y-34111D01*
X60289Y-34265D01*
X60491Y-34349D01*
X60709Y-34349D01*
X60911Y-34265D01*
X61065Y-34111D01*
X61100Y-34026D01*
X61135Y-34111D01*
X61270Y-34246D01*
X61270Y-34700D01*
X61270Y-34800D01*
X61270Y-35313D01*
X61295Y-35440D01*
X61302Y-35450D01*
X61302Y-35785D01*
X61340Y-35877D01*
X61410Y-35947D01*
X61464Y-35969D01*
X61441Y-36025D01*
X61441Y-36124D01*
X61440Y-36238D01*
X61502Y-36300D01*
X61765Y-36300D01*
X61815Y-36300D01*
X61915Y-36300D01*
X61915Y-36400D01*
X61815Y-36400D01*
X61765Y-36400D01*
X61502Y-36400D01*
X61440Y-36462D01*
X61441Y-36576D01*
X61441Y-36670D01*
X61149Y-36670D01*
X61149Y-36651D01*
X61143Y-36636D01*
X61143Y-36079D01*
X61132Y-35866D01*
X61072Y-35719D01*
X60978Y-35692D01*
X60908Y-35762D01*
X60908Y-35622D01*
X60881Y-35528D01*
X60679Y-35457D01*
X60466Y-35468D01*
X60319Y-35528D01*
X60292Y-35622D01*
X60600Y-35929D01*
X60908Y-35622D01*
X60908Y-35762D01*
X60671Y-36000D01*
X60978Y-36308D01*
X61072Y-36281D01*
X61143Y-36079D01*
X61143Y-36636D01*
X61111Y-36559D01*
X61041Y-36489D01*
X60950Y-36451D01*
X60887Y-36451D01*
X60908Y-36378D01*
X60600Y-36071D01*
X60529Y-36141D01*
X60529Y-36000D01*
X60222Y-35692D01*
X60128Y-35719D01*
X60057Y-35921D01*
X60068Y-36134D01*
X60128Y-36281D01*
X60222Y-36308D01*
X60529Y-36000D01*
X60529Y-36141D01*
X60292Y-36378D01*
X60312Y-36451D01*
X60251Y-36451D01*
X60159Y-36489D01*
X60089Y-36559D01*
X60051Y-36650D01*
X60051Y-36749D01*
X60051Y-37349D01*
X60089Y-37441D01*
X60159Y-37511D01*
X60250Y-37549D01*
X60349Y-37549D01*
X60949Y-37549D01*
X61041Y-37511D01*
X61111Y-37441D01*
X61149Y-37350D01*
X61149Y-37330D01*
X61316Y-37330D01*
X61302Y-37364D01*
X61302Y-37463D01*
X61302Y-37935D01*
X61340Y-38027D01*
X61410Y-38097D01*
X61464Y-38119D01*
X61441Y-38175D01*
X61441Y-38274D01*
X61440Y-38388D01*
X61502Y-38450D01*
X61765Y-38450D01*
X61815Y-38450D01*
X61915Y-38450D01*
X61915Y-38550D01*
X61915Y-38600D01*
X61915Y-38963D01*
X61977Y-39025D01*
X62089Y-39024D01*
X62181Y-38986D01*
X62240Y-38927D01*
X62299Y-38986D01*
X62390Y-39024D01*
X62489Y-39024D01*
X62839Y-39024D01*
X62931Y-38986D01*
X63001Y-38916D01*
X63039Y-38825D01*
X63039Y-38726D01*
X63039Y-38176D01*
X63001Y-38085D01*
X63060Y-38027D01*
X63098Y-37936D01*
X63098Y-37837D01*
X63098Y-37365D01*
X63060Y-37273D01*
X62990Y-37203D01*
X62899Y-37165D01*
X62800Y-37165D01*
X62328Y-37165D01*
X62236Y-37203D01*
X62200Y-37239D01*
X62164Y-37203D01*
X62117Y-37183D01*
X62117Y-37097D01*
X62095Y-36991D01*
X62092Y-36971D01*
X62092Y-36970D01*
X62027Y-36874D01*
X62089Y-36874D01*
X62181Y-36836D01*
X62240Y-36777D01*
X62299Y-36836D01*
X62390Y-36874D01*
X62489Y-36874D01*
X62839Y-36874D01*
X62931Y-36836D01*
X63001Y-36766D01*
X63039Y-36675D01*
X63039Y-36576D01*
X63039Y-36026D01*
X63001Y-35935D01*
X63060Y-35877D01*
X63098Y-35786D01*
X63098Y-35687D01*
X63098Y-35215D01*
X63062Y-35130D01*
X63663Y-35130D01*
X63866Y-35333D01*
X63867Y-35333D01*
X63973Y-35405D01*
X63974Y-35405D01*
X63994Y-35408D01*
X64100Y-35430D01*
X64363Y-35430D01*
X64370Y-35436D01*
X64370Y-36400D01*
X64395Y-36527D01*
X64467Y-36633D01*
X64666Y-36833D01*
X64667Y-36833D01*
X64738Y-36880D01*
X64773Y-36904D01*
X64774Y-36905D01*
X64899Y-36929D01*
X64900Y-36930D01*
X65370Y-36930D01*
X65370Y-39070D01*
X61815Y-39070D01*
X61815Y-38963D01*
X61815Y-38550D01*
X61502Y-38550D01*
X61440Y-38612D01*
X61441Y-38726D01*
X61441Y-38825D01*
X61479Y-38916D01*
X61549Y-38986D01*
X61641Y-39024D01*
X61753Y-39025D01*
X61815Y-38963D01*
X61815Y-39070D01*
X59119Y-39070D01*
X59119Y-38574D01*
X59119Y-33774D01*
X59119Y-31774D01*
X59108Y-31570D01*
X59052Y-31433D01*
X58961Y-31410D01*
X58890Y-31481D01*
X58890Y-31339D01*
X58867Y-31248D01*
X58674Y-31181D01*
X58470Y-31192D01*
X58333Y-31248D01*
X58310Y-31339D01*
X58600Y-31629D01*
X58890Y-31339D01*
X58890Y-31481D01*
X58671Y-31700D01*
X58961Y-31990D01*
X59052Y-31967D01*
X59119Y-31774D01*
X59119Y-33774D01*
X59108Y-33570D01*
X59052Y-33433D01*
X58961Y-33410D01*
X58890Y-33481D01*
X58890Y-33339D01*
X58890Y-32061D01*
X58600Y-31771D01*
X58529Y-31842D01*
X58529Y-31700D01*
X58239Y-31410D01*
X58148Y-31433D01*
X58106Y-31551D01*
X58045Y-31403D01*
X57898Y-31255D01*
X57705Y-31175D01*
X57496Y-31175D01*
X57303Y-31255D01*
X57155Y-31402D01*
X57075Y-31595D01*
X57075Y-31804D01*
X57155Y-31997D01*
X57302Y-32145D01*
X57495Y-32225D01*
X57704Y-32225D01*
X57897Y-32145D01*
X58045Y-31998D01*
X58103Y-31857D01*
X58148Y-31967D01*
X58239Y-31990D01*
X58529Y-31700D01*
X58529Y-31842D01*
X58310Y-32061D01*
X58333Y-32152D01*
X58526Y-32219D01*
X58730Y-32208D01*
X58867Y-32152D01*
X58890Y-32061D01*
X58890Y-33339D01*
X58867Y-33248D01*
X58674Y-33181D01*
X58470Y-33192D01*
X58333Y-33248D01*
X58310Y-33339D01*
X58600Y-33629D01*
X58890Y-33339D01*
X58890Y-33481D01*
X58671Y-33700D01*
X58961Y-33990D01*
X59052Y-33967D01*
X59119Y-33774D01*
X59119Y-38574D01*
X59108Y-38370D01*
X59052Y-38233D01*
X58961Y-38210D01*
X58890Y-38281D01*
X58890Y-38139D01*
X58890Y-34061D01*
X58600Y-33771D01*
X58529Y-33842D01*
X58529Y-33700D01*
X58239Y-33410D01*
X58148Y-33433D01*
X58106Y-33551D01*
X58045Y-33403D01*
X57898Y-33255D01*
X57705Y-33175D01*
X57496Y-33175D01*
X57303Y-33255D01*
X57155Y-33402D01*
X57075Y-33595D01*
X57075Y-33804D01*
X57155Y-33997D01*
X57302Y-34145D01*
X57495Y-34225D01*
X57704Y-34225D01*
X57897Y-34145D01*
X58045Y-33998D01*
X58103Y-33857D01*
X58148Y-33967D01*
X58239Y-33990D01*
X58529Y-33700D01*
X58529Y-33842D01*
X58310Y-34061D01*
X58333Y-34152D01*
X58526Y-34219D01*
X58730Y-34208D01*
X58867Y-34152D01*
X58890Y-34061D01*
X58890Y-38139D01*
X58867Y-38048D01*
X58674Y-37981D01*
X58624Y-37983D01*
X58624Y-37325D01*
X58624Y-37226D01*
X58624Y-36676D01*
X58619Y-36663D01*
X58619Y-36074D01*
X58608Y-35870D01*
X58552Y-35733D01*
X58461Y-35710D01*
X58390Y-35781D01*
X58390Y-35639D01*
X58367Y-35548D01*
X58174Y-35481D01*
X57970Y-35492D01*
X57833Y-35548D01*
X57810Y-35639D01*
X58100Y-35929D01*
X58390Y-35639D01*
X58390Y-35781D01*
X58171Y-36000D01*
X58461Y-36290D01*
X58552Y-36267D01*
X58619Y-36074D01*
X58619Y-36663D01*
X58586Y-36584D01*
X58516Y-36514D01*
X58425Y-36476D01*
X58326Y-36476D01*
X58308Y-36476D01*
X58367Y-36452D01*
X58390Y-36361D01*
X58100Y-36071D01*
X58029Y-36142D01*
X58029Y-36000D01*
X57739Y-35710D01*
X57648Y-35733D01*
X57581Y-35926D01*
X57592Y-36130D01*
X57648Y-36267D01*
X57739Y-36290D01*
X58029Y-36000D01*
X58029Y-36142D01*
X57810Y-36361D01*
X57833Y-36452D01*
X57902Y-36476D01*
X57776Y-36476D01*
X57684Y-36514D01*
X57614Y-36584D01*
X57576Y-36675D01*
X57576Y-36774D01*
X57576Y-37324D01*
X57614Y-37416D01*
X57684Y-37486D01*
X57775Y-37524D01*
X57874Y-37524D01*
X58424Y-37524D01*
X58516Y-37486D01*
X58586Y-37416D01*
X58624Y-37325D01*
X58624Y-37983D01*
X58470Y-37992D01*
X58333Y-38048D01*
X58310Y-38139D01*
X58600Y-38429D01*
X58890Y-38139D01*
X58890Y-38281D01*
X58671Y-38500D01*
X58961Y-38790D01*
X59052Y-38767D01*
X59119Y-38574D01*
X59119Y-39070D01*
X58890Y-39070D01*
X58890Y-38861D01*
X58600Y-38571D01*
X58529Y-38642D01*
X58529Y-38500D01*
X58239Y-38210D01*
X58148Y-38233D01*
X58106Y-38351D01*
X58045Y-38203D01*
X57898Y-38055D01*
X57705Y-37975D01*
X57496Y-37975D01*
X57303Y-38055D01*
X57155Y-38202D01*
X57075Y-38395D01*
X57075Y-38604D01*
X57155Y-38797D01*
X57302Y-38945D01*
X57495Y-39025D01*
X57704Y-39025D01*
X57897Y-38945D01*
X58045Y-38798D01*
X58103Y-38657D01*
X58148Y-38767D01*
X58239Y-38790D01*
X58529Y-38500D01*
X58529Y-38642D01*
X58310Y-38861D01*
X58333Y-38952D01*
X58526Y-39019D01*
X58730Y-39008D01*
X58867Y-38952D01*
X58890Y-38861D01*
X58890Y-39070D01*
X55900Y-39070D01*
X55900Y-36112D01*
X55900Y-35888D01*
X55900Y-32812D01*
X55900Y-32588D01*
X55899Y-32399D01*
X55899Y-32300D01*
X55861Y-32209D01*
X55791Y-32139D01*
X55732Y-32114D01*
X55808Y-32039D01*
X55899Y-31819D01*
X55899Y-31581D01*
X55808Y-31361D01*
X55639Y-31192D01*
X55419Y-31101D01*
X55181Y-31101D01*
X54961Y-31192D01*
X54792Y-31361D01*
X54701Y-31581D01*
X54701Y-31819D01*
X54792Y-32039D01*
X54867Y-32114D01*
X54809Y-32139D01*
X54739Y-32209D01*
X54701Y-32300D01*
X54701Y-32399D01*
X54700Y-32588D01*
X54762Y-32650D01*
X55200Y-32650D01*
X55250Y-32650D01*
X55350Y-32650D01*
X55400Y-32650D01*
X55838Y-32650D01*
X55900Y-32588D01*
X55900Y-32812D01*
X55838Y-32750D01*
X55400Y-32750D01*
X55350Y-32750D01*
X55250Y-32750D01*
X55200Y-32750D01*
X54762Y-32750D01*
X54700Y-32812D01*
X54701Y-33001D01*
X54701Y-33100D01*
X54739Y-33191D01*
X54809Y-33261D01*
X54867Y-33285D01*
X54792Y-33361D01*
X54701Y-33581D01*
X54701Y-33819D01*
X54792Y-34039D01*
X54961Y-34208D01*
X55181Y-34299D01*
X55419Y-34299D01*
X55639Y-34208D01*
X55808Y-34039D01*
X55899Y-33819D01*
X55899Y-33581D01*
X55808Y-33361D01*
X55732Y-33285D01*
X55791Y-33261D01*
X55861Y-33191D01*
X55899Y-33100D01*
X55899Y-33001D01*
X55900Y-32812D01*
X55900Y-35888D01*
X55899Y-35699D01*
X55899Y-35600D01*
X55861Y-35509D01*
X55791Y-35439D01*
X55699Y-35401D01*
X55412Y-35400D01*
X55350Y-35462D01*
X55350Y-35950D01*
X55838Y-35950D01*
X55900Y-35888D01*
X55900Y-36112D01*
X55838Y-36050D01*
X55400Y-36050D01*
X55350Y-36050D01*
X55250Y-36050D01*
X55250Y-35950D01*
X55250Y-35462D01*
X55188Y-35400D01*
X54901Y-35401D01*
X54809Y-35439D01*
X54739Y-35509D01*
X54701Y-35600D01*
X54701Y-35699D01*
X54700Y-35888D01*
X54762Y-35950D01*
X55250Y-35950D01*
X55250Y-36050D01*
X55200Y-36050D01*
X54762Y-36050D01*
X54700Y-36112D01*
X54701Y-36301D01*
X54701Y-36400D01*
X54739Y-36491D01*
X54809Y-36561D01*
X54867Y-36585D01*
X54792Y-36661D01*
X54701Y-36881D01*
X54701Y-37119D01*
X54792Y-37339D01*
X54953Y-37500D01*
X54792Y-37661D01*
X54701Y-37881D01*
X54701Y-38119D01*
X54792Y-38339D01*
X54961Y-38508D01*
X55181Y-38599D01*
X55419Y-38599D01*
X55639Y-38508D01*
X55808Y-38339D01*
X55899Y-38119D01*
X55899Y-37881D01*
X55808Y-37661D01*
X55647Y-37500D01*
X55808Y-37339D01*
X55899Y-37119D01*
X55899Y-36881D01*
X55808Y-36661D01*
X55732Y-36585D01*
X55791Y-36561D01*
X55861Y-36491D01*
X55899Y-36400D01*
X55899Y-36301D01*
X55900Y-36112D01*
X55900Y-39070D01*
X52339Y-39070D01*
X52339Y-33491D01*
X52339Y-33267D01*
X52338Y-32641D01*
X52300Y-32549D01*
X52230Y-32479D01*
X52139Y-32441D01*
X52040Y-32441D01*
X51512Y-32440D01*
X51450Y-32502D01*
X51450Y-33329D01*
X52277Y-33329D01*
X52339Y-33267D01*
X52339Y-33491D01*
X52277Y-33429D01*
X51450Y-33429D01*
X51450Y-34256D01*
X51512Y-34318D01*
X52040Y-34317D01*
X52139Y-34317D01*
X52230Y-34279D01*
X52300Y-34209D01*
X52338Y-34117D01*
X52339Y-33491D01*
X52339Y-39070D01*
X52338Y-39070D01*
X52338Y-36480D01*
X52338Y-36381D01*
X52338Y-35003D01*
X52300Y-34911D01*
X52230Y-34841D01*
X52139Y-34803D01*
X52040Y-34803D01*
X51350Y-34803D01*
X51350Y-34256D01*
X51350Y-33429D01*
X51350Y-33329D01*
X51350Y-32502D01*
X51288Y-32440D01*
X50760Y-32441D01*
X50661Y-32441D01*
X50570Y-32479D01*
X50500Y-32549D01*
X50462Y-32641D01*
X50461Y-33267D01*
X50523Y-33329D01*
X51350Y-33329D01*
X51350Y-33429D01*
X50523Y-33429D01*
X50461Y-33491D01*
X50461Y-33757D01*
X50450Y-33730D01*
X50380Y-33660D01*
X50289Y-33622D01*
X50190Y-33622D01*
X49662Y-33621D01*
X49600Y-33683D01*
X49600Y-34510D01*
X50427Y-34510D01*
X50489Y-34448D01*
X50488Y-34181D01*
X50500Y-34209D01*
X50570Y-34279D01*
X50661Y-34317D01*
X50760Y-34317D01*
X51288Y-34318D01*
X51350Y-34256D01*
X51350Y-34803D01*
X50662Y-34803D01*
X50570Y-34841D01*
X50500Y-34911D01*
X50488Y-34938D01*
X50489Y-34672D01*
X50427Y-34610D01*
X49600Y-34610D01*
X49600Y-35437D01*
X49662Y-35499D01*
X50190Y-35498D01*
X50289Y-35498D01*
X50380Y-35460D01*
X50450Y-35390D01*
X50462Y-35360D01*
X50462Y-36479D01*
X50500Y-36571D01*
X50570Y-36641D01*
X50661Y-36679D01*
X50760Y-36679D01*
X52138Y-36679D01*
X52230Y-36641D01*
X52300Y-36571D01*
X52338Y-36480D01*
X52338Y-39070D01*
X51630Y-39070D01*
X51630Y-38400D01*
X51605Y-38274D01*
X51604Y-38273D01*
X51580Y-38238D01*
X51533Y-38167D01*
X51533Y-38166D01*
X51433Y-38067D01*
X51327Y-37995D01*
X51200Y-37970D01*
X49600Y-37970D01*
X49500Y-37989D01*
X49500Y-35437D01*
X49500Y-34610D01*
X49500Y-34510D01*
X49500Y-33683D01*
X49438Y-33621D01*
X48910Y-33622D01*
X48811Y-33622D01*
X48720Y-33660D01*
X48650Y-33730D01*
X48612Y-33822D01*
X48611Y-34448D01*
X48673Y-34510D01*
X49500Y-34510D01*
X49500Y-34610D01*
X48673Y-34610D01*
X48611Y-34672D01*
X48612Y-35298D01*
X48650Y-35390D01*
X48720Y-35460D01*
X48811Y-35498D01*
X48910Y-35498D01*
X49438Y-35499D01*
X49500Y-35437D01*
X49500Y-37989D01*
X49494Y-37991D01*
X49473Y-37995D01*
X49366Y-38067D01*
X49236Y-38198D01*
X49164Y-38304D01*
X49139Y-38431D01*
X49139Y-38806D01*
X49004Y-38941D01*
X48920Y-39143D01*
X48920Y-39361D01*
X49004Y-39563D01*
X49116Y-39675D01*
X48325Y-39675D01*
X48325Y-30325D01*
X69175Y-30325D01*
X69175Y-30730D01*
X69093Y-30696D01*
X68994Y-30696D01*
X68762Y-30695D01*
X68700Y-30757D01*
X68700Y-31337D01*
X68700Y-31387D01*
X68700Y-31487D01*
X68700Y-31537D01*
X68700Y-32117D01*
X68762Y-32179D01*
X68994Y-32178D01*
X69093Y-32178D01*
X69175Y-32143D01*
X69175Y-32895D01*
X69093Y-32861D01*
X68994Y-32861D01*
X68762Y-32860D01*
X68700Y-32922D01*
X68700Y-33502D01*
X68700Y-33552D01*
X68700Y-33652D01*
X68700Y-33702D01*
X68700Y-34282D01*
X68762Y-34344D01*
X68994Y-34343D01*
X69093Y-34343D01*
X69175Y-34308D01*
X69175Y-39675D01*
M02*
