M48
INCH,LZ
T1C0.032
T2C0.039
T3C0.040
T4C0.045
%
G90
G05
T1
X0576Y-0317
X0576Y-0337
X0576Y-0385
X0581Y-036
X0581Y-037
X0586Y-0317
X0586Y-0337
X0586Y-0385
T3
X049469Y-039252
X050469Y-039252
X0553Y-036
X0553Y-037
X0553Y-038
X0606Y-0317
X0606Y-0338
X0606Y-036
X0606Y-037
X0616Y-0317
X0616Y-0338
X0626Y-0317
X0626Y-0338
X067028Y-039252
X068028Y-039252
T4
X0553Y-0317
X0553Y-0327
X0553Y-0337
T2
X04955Y-034167G85X04955Y-034953
G05
X051793Y-033379G85X051007Y-033379
G05
X051793Y-035741G85X051007Y-035741
G05
T0
M30
