G04 (created by PCBNEW-RS274X (2011-nov-30)-stable) date Die 24 Apr 2012 19:25:18 CEST*
G01*
G70*
G90*
%MOIN*%
G04 Gerber Fmt 3.4, Leading zero omitted, Abs format*
%FSLAX34Y34*%
G04 APERTURE LIST*
%ADD10C,0.001000*%
%ADD11C,0.007500*%
%ADD12C,0.006000*%
%ADD13C,0.015000*%
%ADD14C,0.005000*%
%ADD15C,0.000300*%
%ADD16C,0.003900*%
%ADD17C,0.010000*%
%ADD18C,0.002600*%
%ADD19C,0.004000*%
%ADD20C,0.002000*%
%ADD21C,0.012000*%
%ADD22C,0.008000*%
G04 APERTURE END LIST*
G54D10*
G54D11*
X48620Y-39624D02*
X48620Y-39395D01*
X48772Y-39509D02*
X48467Y-39509D01*
X48372Y-39110D02*
X48372Y-39253D01*
X48562Y-39267D01*
X48543Y-39253D01*
X48524Y-39224D01*
X48524Y-39153D01*
X48543Y-39124D01*
X48562Y-39110D01*
X48600Y-39095D01*
X48696Y-39095D01*
X48734Y-39110D01*
X48753Y-39124D01*
X48772Y-39153D01*
X48772Y-39224D01*
X48753Y-39253D01*
X48734Y-39267D01*
X48505Y-38995D02*
X48772Y-38924D01*
X48505Y-38852D01*
X66120Y-39697D02*
X66120Y-39468D01*
X66272Y-39582D02*
X65967Y-39582D01*
X65872Y-39183D02*
X65872Y-39326D01*
X66062Y-39340D01*
X66043Y-39326D01*
X66024Y-39297D01*
X66024Y-39226D01*
X66043Y-39197D01*
X66062Y-39183D01*
X66100Y-39168D01*
X66196Y-39168D01*
X66234Y-39183D01*
X66253Y-39197D01*
X66272Y-39226D01*
X66272Y-39297D01*
X66253Y-39326D01*
X66234Y-39340D01*
X65872Y-39082D02*
X66272Y-38982D01*
X65872Y-38882D01*
G54D12*
X48502Y-32872D02*
X48502Y-32929D01*
X48526Y-32958D01*
X48550Y-32972D01*
X48621Y-33001D01*
X48717Y-33015D01*
X48907Y-33015D01*
X48955Y-33001D01*
X48979Y-32986D01*
X49002Y-32958D01*
X49002Y-32901D01*
X48979Y-32872D01*
X48955Y-32858D01*
X48907Y-32843D01*
X48788Y-32843D01*
X48740Y-32858D01*
X48717Y-32872D01*
X48693Y-32901D01*
X48693Y-32958D01*
X48717Y-32986D01*
X48740Y-33001D01*
X48788Y-33015D01*
X48955Y-32715D02*
X48979Y-32700D01*
X49002Y-32715D01*
X48979Y-32729D01*
X48955Y-32715D01*
X49002Y-32715D01*
X48502Y-32429D02*
X48502Y-32572D01*
X48740Y-32586D01*
X48717Y-32572D01*
X48693Y-32543D01*
X48693Y-32472D01*
X48717Y-32443D01*
X48740Y-32429D01*
X48788Y-32414D01*
X48907Y-32414D01*
X48955Y-32429D01*
X48979Y-32443D01*
X49002Y-32472D01*
X49002Y-32543D01*
X48979Y-32572D01*
X48955Y-32586D01*
X48812Y-32286D02*
X48812Y-32057D01*
X49002Y-31757D02*
X49002Y-31929D01*
X49002Y-31843D02*
X48502Y-31843D01*
X48574Y-31872D01*
X48621Y-31900D01*
X48645Y-31929D01*
X48550Y-31643D02*
X48526Y-31629D01*
X48502Y-31600D01*
X48502Y-31529D01*
X48526Y-31500D01*
X48550Y-31486D01*
X48598Y-31471D01*
X48645Y-31471D01*
X48717Y-31486D01*
X49002Y-31657D01*
X49002Y-31471D01*
X48502Y-31156D02*
X49002Y-31056D01*
X48502Y-30956D01*
X49002Y-30857D02*
X48502Y-30857D01*
X48502Y-30785D01*
X48526Y-30742D01*
X48574Y-30714D01*
X48621Y-30699D01*
X48717Y-30685D01*
X48788Y-30685D01*
X48883Y-30699D01*
X48931Y-30714D01*
X48979Y-30742D01*
X49002Y-30785D01*
X49002Y-30857D01*
X48955Y-30385D02*
X48979Y-30399D01*
X49002Y-30442D01*
X49002Y-30471D01*
X48979Y-30514D01*
X48931Y-30542D01*
X48883Y-30557D01*
X48788Y-30571D01*
X48717Y-30571D01*
X48621Y-30557D01*
X48574Y-30542D01*
X48526Y-30514D01*
X48502Y-30471D01*
X48502Y-30442D01*
X48526Y-30399D01*
X48550Y-30385D01*
X65151Y-35740D02*
X65194Y-35764D01*
X65209Y-35788D01*
X65223Y-35836D01*
X65223Y-35907D01*
X65209Y-35955D01*
X65194Y-35979D01*
X65166Y-36002D01*
X65051Y-36002D01*
X65051Y-35502D01*
X65151Y-35502D01*
X65180Y-35526D01*
X65194Y-35550D01*
X65209Y-35598D01*
X65209Y-35645D01*
X65194Y-35693D01*
X65180Y-35717D01*
X65151Y-35740D01*
X65051Y-35740D01*
X65351Y-36002D02*
X65351Y-35669D01*
X65351Y-35764D02*
X65366Y-35717D01*
X65380Y-35693D01*
X65409Y-35669D01*
X65437Y-35669D01*
X65652Y-35979D02*
X65623Y-36002D01*
X65566Y-36002D01*
X65537Y-35979D01*
X65523Y-35931D01*
X65523Y-35740D01*
X65537Y-35693D01*
X65566Y-35669D01*
X65623Y-35669D01*
X65652Y-35693D01*
X65666Y-35740D01*
X65666Y-35788D01*
X65523Y-35836D01*
X65923Y-36002D02*
X65923Y-35740D01*
X65909Y-35693D01*
X65880Y-35669D01*
X65823Y-35669D01*
X65794Y-35693D01*
X65923Y-35979D02*
X65894Y-36002D01*
X65823Y-36002D01*
X65794Y-35979D01*
X65780Y-35931D01*
X65780Y-35883D01*
X65794Y-35836D01*
X65823Y-35812D01*
X65894Y-35812D01*
X65923Y-35788D01*
X66194Y-36002D02*
X66194Y-35502D01*
X66194Y-35979D02*
X66165Y-36002D01*
X66108Y-36002D01*
X66080Y-35979D01*
X66065Y-35955D01*
X66051Y-35907D01*
X66051Y-35764D01*
X66065Y-35717D01*
X66080Y-35693D01*
X66108Y-35669D01*
X66165Y-35669D01*
X66194Y-35693D01*
X66336Y-36002D02*
X66336Y-35502D01*
X66336Y-35693D02*
X66365Y-35669D01*
X66422Y-35669D01*
X66451Y-35693D01*
X66465Y-35717D01*
X66479Y-35764D01*
X66479Y-35907D01*
X66465Y-35955D01*
X66451Y-35979D01*
X66422Y-36002D01*
X66365Y-36002D01*
X66336Y-35979D01*
X66650Y-36002D02*
X66622Y-35979D01*
X66607Y-35955D01*
X66593Y-35907D01*
X66593Y-35764D01*
X66607Y-35717D01*
X66622Y-35693D01*
X66650Y-35669D01*
X66693Y-35669D01*
X66722Y-35693D01*
X66736Y-35717D01*
X66750Y-35764D01*
X66750Y-35907D01*
X66736Y-35955D01*
X66722Y-35979D01*
X66693Y-36002D01*
X66650Y-36002D01*
X67007Y-36002D02*
X67007Y-35740D01*
X66993Y-35693D01*
X66964Y-35669D01*
X66907Y-35669D01*
X66878Y-35693D01*
X67007Y-35979D02*
X66978Y-36002D01*
X66907Y-36002D01*
X66878Y-35979D01*
X66864Y-35931D01*
X66864Y-35883D01*
X66878Y-35836D01*
X66907Y-35812D01*
X66978Y-35812D01*
X67007Y-35788D01*
X67149Y-36002D02*
X67149Y-35669D01*
X67149Y-35764D02*
X67164Y-35717D01*
X67178Y-35693D01*
X67207Y-35669D01*
X67235Y-35669D01*
X67464Y-36002D02*
X67464Y-35502D01*
X67464Y-35979D02*
X67435Y-36002D01*
X67378Y-36002D01*
X67350Y-35979D01*
X67335Y-35955D01*
X67321Y-35907D01*
X67321Y-35764D01*
X67335Y-35717D01*
X67350Y-35693D01*
X67378Y-35669D01*
X67435Y-35669D01*
X67464Y-35693D01*
X67592Y-35979D02*
X67635Y-36002D01*
X67706Y-36002D01*
X67735Y-35979D01*
X67749Y-35955D01*
X67764Y-35907D01*
X67764Y-35860D01*
X67749Y-35812D01*
X67735Y-35788D01*
X67706Y-35764D01*
X67649Y-35740D01*
X67621Y-35717D01*
X67606Y-35693D01*
X67592Y-35645D01*
X67592Y-35598D01*
X67606Y-35550D01*
X67621Y-35526D01*
X67649Y-35502D01*
X67721Y-35502D01*
X67764Y-35526D01*
X68021Y-35669D02*
X68021Y-36002D01*
X67892Y-35669D02*
X67892Y-35931D01*
X67907Y-35979D01*
X67935Y-36002D01*
X67978Y-36002D01*
X68007Y-35979D01*
X68021Y-35955D01*
X68163Y-35669D02*
X68163Y-36169D01*
X68163Y-35693D02*
X68192Y-35669D01*
X68249Y-35669D01*
X68278Y-35693D01*
X68292Y-35717D01*
X68306Y-35764D01*
X68306Y-35907D01*
X68292Y-35955D01*
X68278Y-35979D01*
X68249Y-36002D01*
X68192Y-36002D01*
X68163Y-35979D01*
X68434Y-35669D02*
X68434Y-36169D01*
X68434Y-35693D02*
X68463Y-35669D01*
X68520Y-35669D01*
X68549Y-35693D01*
X68563Y-35717D01*
X68577Y-35764D01*
X68577Y-35907D01*
X68563Y-35955D01*
X68549Y-35979D01*
X68520Y-36002D01*
X68463Y-36002D01*
X68434Y-35979D01*
X68748Y-36002D02*
X68720Y-35979D01*
X68705Y-35931D01*
X68705Y-35502D01*
X68834Y-35669D02*
X68905Y-36002D01*
X68977Y-35669D02*
X68905Y-36002D01*
X68877Y-36121D01*
X68862Y-36145D01*
X68834Y-36169D01*
G54D13*
X54550Y-39000D02*
X54300Y-39000D01*
X54300Y-39000D02*
X54300Y-35000D01*
X54300Y-35000D02*
X54550Y-35000D01*
X56050Y-39000D02*
X54550Y-39000D01*
X54550Y-39000D02*
X54550Y-35000D01*
X54550Y-35000D02*
X56050Y-35000D01*
X56050Y-35000D02*
X56050Y-39000D01*
G54D14*
X62940Y-38200D02*
X62939Y-38209D01*
X62936Y-38219D01*
X62931Y-38227D01*
X62925Y-38235D01*
X62917Y-38241D01*
X62909Y-38246D01*
X62900Y-38248D01*
X62890Y-38249D01*
X62881Y-38249D01*
X62872Y-38246D01*
X62863Y-38241D01*
X62856Y-38235D01*
X62849Y-38228D01*
X62845Y-38219D01*
X62842Y-38210D01*
X62841Y-38200D01*
X62841Y-38191D01*
X62844Y-38182D01*
X62848Y-38173D01*
X62855Y-38166D01*
X62862Y-38159D01*
X62870Y-38155D01*
X62880Y-38152D01*
X62889Y-38151D01*
X62898Y-38151D01*
X62908Y-38154D01*
X62916Y-38158D01*
X62924Y-38164D01*
X62930Y-38172D01*
X62935Y-38180D01*
X62938Y-38189D01*
X62939Y-38199D01*
X62940Y-38200D01*
X62440Y-38200D02*
X62840Y-38200D01*
X62840Y-38200D02*
X62840Y-38800D01*
X62840Y-38800D02*
X62440Y-38800D01*
X62040Y-38800D02*
X61640Y-38800D01*
X61640Y-38800D02*
X61640Y-38200D01*
X61640Y-38200D02*
X62040Y-38200D01*
X62940Y-36050D02*
X62939Y-36059D01*
X62936Y-36069D01*
X62931Y-36077D01*
X62925Y-36085D01*
X62917Y-36091D01*
X62909Y-36096D01*
X62900Y-36098D01*
X62890Y-36099D01*
X62881Y-36099D01*
X62872Y-36096D01*
X62863Y-36091D01*
X62856Y-36085D01*
X62849Y-36078D01*
X62845Y-36069D01*
X62842Y-36060D01*
X62841Y-36050D01*
X62841Y-36041D01*
X62844Y-36032D01*
X62848Y-36023D01*
X62855Y-36016D01*
X62862Y-36009D01*
X62870Y-36005D01*
X62880Y-36002D01*
X62889Y-36001D01*
X62898Y-36001D01*
X62908Y-36004D01*
X62916Y-36008D01*
X62924Y-36014D01*
X62930Y-36022D01*
X62935Y-36030D01*
X62938Y-36039D01*
X62939Y-36049D01*
X62940Y-36050D01*
X62440Y-36050D02*
X62840Y-36050D01*
X62840Y-36050D02*
X62840Y-36650D01*
X62840Y-36650D02*
X62440Y-36650D01*
X62040Y-36650D02*
X61640Y-36650D01*
X61640Y-36650D02*
X61640Y-36050D01*
X61640Y-36050D02*
X62040Y-36050D01*
G54D12*
X60100Y-32200D02*
X60100Y-31200D01*
X60100Y-31200D02*
X63100Y-31200D01*
X63100Y-31200D02*
X63100Y-32200D01*
X63100Y-32200D02*
X60100Y-32200D01*
X61100Y-31200D02*
X61100Y-32200D01*
X63100Y-33300D02*
X63100Y-34300D01*
X63100Y-34300D02*
X60100Y-34300D01*
X60100Y-34300D02*
X60100Y-33300D01*
X60100Y-33300D02*
X63100Y-33300D01*
X62100Y-34300D02*
X62100Y-33300D01*
X50969Y-38752D02*
X50969Y-39752D01*
X50969Y-39752D02*
X48969Y-39752D01*
X48969Y-39752D02*
X48969Y-38752D01*
X48969Y-38752D02*
X50969Y-38752D01*
X68528Y-38752D02*
X68528Y-39752D01*
X68528Y-39752D02*
X66528Y-39752D01*
X66528Y-39752D02*
X66528Y-38752D01*
X66528Y-38752D02*
X68528Y-38752D01*
G54D15*
X67943Y-32624D02*
X67939Y-32658D01*
X67929Y-32691D01*
X67913Y-32721D01*
X67891Y-32748D01*
X67864Y-32770D01*
X67834Y-32787D01*
X67801Y-32797D01*
X67767Y-32800D01*
X67733Y-32797D01*
X67700Y-32788D01*
X67670Y-32772D01*
X67643Y-32750D01*
X67620Y-32723D01*
X67604Y-32693D01*
X67593Y-32660D01*
X67590Y-32626D01*
X67592Y-32593D01*
X67602Y-32559D01*
X67618Y-32529D01*
X67639Y-32502D01*
X67665Y-32479D01*
X67696Y-32462D01*
X67728Y-32452D01*
X67763Y-32448D01*
X67796Y-32450D01*
X67830Y-32459D01*
X67860Y-32475D01*
X67888Y-32496D01*
X67910Y-32522D01*
X67927Y-32553D01*
X67938Y-32585D01*
X67942Y-32620D01*
X67943Y-32624D01*
X66212Y-32624D02*
X66208Y-32658D01*
X66198Y-32691D01*
X66182Y-32722D01*
X66160Y-32749D01*
X66133Y-32771D01*
X66102Y-32788D01*
X66069Y-32798D01*
X66035Y-32801D01*
X66001Y-32798D01*
X65968Y-32789D01*
X65937Y-32772D01*
X65910Y-32751D01*
X65888Y-32724D01*
X65871Y-32694D01*
X65860Y-32661D01*
X65857Y-32626D01*
X65859Y-32592D01*
X65869Y-32559D01*
X65885Y-32528D01*
X65906Y-32501D01*
X65933Y-32478D01*
X65963Y-32461D01*
X65996Y-32451D01*
X66031Y-32447D01*
X66064Y-32449D01*
X66098Y-32459D01*
X66129Y-32474D01*
X66156Y-32496D01*
X66179Y-32522D01*
X66196Y-32552D01*
X66207Y-32585D01*
X66211Y-32620D01*
X66212Y-32624D01*
G54D16*
X68415Y-33923D02*
X65385Y-33923D01*
X65385Y-33923D02*
X65385Y-30557D01*
X65385Y-30557D02*
X68415Y-30557D01*
X68415Y-30557D02*
X68415Y-33923D01*
X68415Y-30557D02*
X65385Y-30557D01*
X65385Y-30557D02*
X65385Y-30301D01*
X65385Y-30301D02*
X68415Y-30301D01*
X68415Y-30301D02*
X68415Y-30557D01*
G54D17*
X54550Y-34450D02*
X54300Y-34450D01*
X54300Y-34450D02*
X54300Y-30950D01*
X54300Y-30950D02*
X54550Y-30950D01*
X56050Y-34450D02*
X54550Y-34450D01*
X54550Y-34450D02*
X54550Y-30950D01*
X54550Y-30950D02*
X56050Y-30950D01*
X56050Y-30950D02*
X56050Y-34450D01*
G54D18*
X62396Y-37768D02*
X62396Y-37896D01*
X62396Y-37896D02*
X62593Y-37896D01*
X62593Y-37768D02*
X62593Y-37896D01*
X62396Y-37768D02*
X62593Y-37768D01*
X62396Y-37523D02*
X62396Y-37582D01*
X62396Y-37582D02*
X62495Y-37582D01*
X62495Y-37523D02*
X62495Y-37582D01*
X62396Y-37523D02*
X62495Y-37523D01*
X62396Y-37718D02*
X62396Y-37777D01*
X62396Y-37777D02*
X62495Y-37777D01*
X62495Y-37718D02*
X62495Y-37777D01*
X62396Y-37718D02*
X62495Y-37718D01*
X62396Y-37572D02*
X62396Y-37728D01*
X62396Y-37728D02*
X62465Y-37728D01*
X62465Y-37572D02*
X62465Y-37728D01*
X62396Y-37572D02*
X62465Y-37572D01*
X61807Y-37768D02*
X61807Y-37896D01*
X61807Y-37896D02*
X62004Y-37896D01*
X62004Y-37768D02*
X62004Y-37896D01*
X61807Y-37768D02*
X62004Y-37768D01*
X61807Y-37404D02*
X61807Y-37532D01*
X61807Y-37532D02*
X62004Y-37532D01*
X62004Y-37404D02*
X62004Y-37532D01*
X61807Y-37404D02*
X62004Y-37404D01*
X61905Y-37718D02*
X61905Y-37777D01*
X61905Y-37777D02*
X62004Y-37777D01*
X62004Y-37718D02*
X62004Y-37777D01*
X61905Y-37718D02*
X62004Y-37718D01*
X61905Y-37523D02*
X61905Y-37582D01*
X61905Y-37582D02*
X62004Y-37582D01*
X62004Y-37523D02*
X62004Y-37582D01*
X61905Y-37523D02*
X62004Y-37523D01*
X61935Y-37572D02*
X61935Y-37728D01*
X61935Y-37728D02*
X62004Y-37728D01*
X62004Y-37572D02*
X62004Y-37728D01*
X61935Y-37572D02*
X62004Y-37572D01*
X62200Y-37611D02*
X62200Y-37689D01*
X62200Y-37689D02*
X62278Y-37689D01*
X62278Y-37611D02*
X62278Y-37689D01*
X62200Y-37611D02*
X62278Y-37611D01*
X62396Y-37414D02*
X62396Y-37532D01*
X62396Y-37532D02*
X62514Y-37532D01*
X62514Y-37414D02*
X62514Y-37532D01*
X62396Y-37414D02*
X62514Y-37414D01*
X62564Y-37404D02*
X62564Y-37493D01*
X62564Y-37493D02*
X62593Y-37493D01*
X62593Y-37404D02*
X62593Y-37493D01*
X62564Y-37404D02*
X62593Y-37404D01*
G54D19*
X62406Y-37876D02*
X61994Y-37876D01*
X62004Y-37424D02*
X62564Y-37424D01*
G54D20*
X62562Y-37473D02*
X62561Y-37478D01*
X62559Y-37483D01*
X62557Y-37488D01*
X62553Y-37492D01*
X62549Y-37496D01*
X62544Y-37498D01*
X62539Y-37500D01*
X62534Y-37500D01*
X62529Y-37500D01*
X62524Y-37498D01*
X62519Y-37496D01*
X62515Y-37493D01*
X62511Y-37488D01*
X62509Y-37484D01*
X62507Y-37478D01*
X62507Y-37473D01*
X62507Y-37468D01*
X62508Y-37463D01*
X62511Y-37458D01*
X62514Y-37454D01*
X62519Y-37451D01*
X62523Y-37448D01*
X62528Y-37446D01*
X62534Y-37446D01*
X62538Y-37446D01*
X62544Y-37447D01*
X62549Y-37450D01*
X62553Y-37453D01*
X62556Y-37457D01*
X62559Y-37462D01*
X62561Y-37467D01*
X62561Y-37473D01*
X62562Y-37473D01*
G54D19*
X62593Y-37513D02*
X62582Y-37514D01*
X62570Y-37516D01*
X62558Y-37518D01*
X62547Y-37522D01*
X62536Y-37526D01*
X62525Y-37532D01*
X62515Y-37538D01*
X62505Y-37546D01*
X62497Y-37554D01*
X62489Y-37562D01*
X62481Y-37572D01*
X62475Y-37582D01*
X62469Y-37593D01*
X62465Y-37604D01*
X62461Y-37615D01*
X62459Y-37627D01*
X62457Y-37639D01*
X62456Y-37650D01*
X62457Y-37661D01*
X62459Y-37673D01*
X62461Y-37685D01*
X62465Y-37696D01*
X62469Y-37707D01*
X62475Y-37718D01*
X62481Y-37728D01*
X62489Y-37738D01*
X62497Y-37746D01*
X62505Y-37754D01*
X62515Y-37762D01*
X62525Y-37768D01*
X62536Y-37774D01*
X62547Y-37778D01*
X62558Y-37782D01*
X62570Y-37784D01*
X62582Y-37786D01*
X62593Y-37787D01*
X61807Y-37787D02*
X61818Y-37786D01*
X61830Y-37784D01*
X61842Y-37782D01*
X61853Y-37778D01*
X61864Y-37774D01*
X61875Y-37768D01*
X61885Y-37762D01*
X61895Y-37754D01*
X61903Y-37746D01*
X61911Y-37738D01*
X61919Y-37728D01*
X61925Y-37718D01*
X61931Y-37707D01*
X61935Y-37696D01*
X61939Y-37685D01*
X61941Y-37673D01*
X61943Y-37661D01*
X61944Y-37650D01*
X61943Y-37639D01*
X61941Y-37627D01*
X61939Y-37615D01*
X61935Y-37604D01*
X61931Y-37593D01*
X61925Y-37582D01*
X61919Y-37572D01*
X61911Y-37562D01*
X61903Y-37554D01*
X61895Y-37546D01*
X61885Y-37538D01*
X61875Y-37532D01*
X61864Y-37526D01*
X61853Y-37522D01*
X61842Y-37518D01*
X61830Y-37516D01*
X61818Y-37514D01*
X61807Y-37513D01*
G54D18*
X62396Y-35618D02*
X62396Y-35746D01*
X62396Y-35746D02*
X62593Y-35746D01*
X62593Y-35618D02*
X62593Y-35746D01*
X62396Y-35618D02*
X62593Y-35618D01*
X62396Y-35373D02*
X62396Y-35432D01*
X62396Y-35432D02*
X62495Y-35432D01*
X62495Y-35373D02*
X62495Y-35432D01*
X62396Y-35373D02*
X62495Y-35373D01*
X62396Y-35568D02*
X62396Y-35627D01*
X62396Y-35627D02*
X62495Y-35627D01*
X62495Y-35568D02*
X62495Y-35627D01*
X62396Y-35568D02*
X62495Y-35568D01*
X62396Y-35422D02*
X62396Y-35578D01*
X62396Y-35578D02*
X62465Y-35578D01*
X62465Y-35422D02*
X62465Y-35578D01*
X62396Y-35422D02*
X62465Y-35422D01*
X61807Y-35618D02*
X61807Y-35746D01*
X61807Y-35746D02*
X62004Y-35746D01*
X62004Y-35618D02*
X62004Y-35746D01*
X61807Y-35618D02*
X62004Y-35618D01*
X61807Y-35254D02*
X61807Y-35382D01*
X61807Y-35382D02*
X62004Y-35382D01*
X62004Y-35254D02*
X62004Y-35382D01*
X61807Y-35254D02*
X62004Y-35254D01*
X61905Y-35568D02*
X61905Y-35627D01*
X61905Y-35627D02*
X62004Y-35627D01*
X62004Y-35568D02*
X62004Y-35627D01*
X61905Y-35568D02*
X62004Y-35568D01*
X61905Y-35373D02*
X61905Y-35432D01*
X61905Y-35432D02*
X62004Y-35432D01*
X62004Y-35373D02*
X62004Y-35432D01*
X61905Y-35373D02*
X62004Y-35373D01*
X61935Y-35422D02*
X61935Y-35578D01*
X61935Y-35578D02*
X62004Y-35578D01*
X62004Y-35422D02*
X62004Y-35578D01*
X61935Y-35422D02*
X62004Y-35422D01*
X62200Y-35461D02*
X62200Y-35539D01*
X62200Y-35539D02*
X62278Y-35539D01*
X62278Y-35461D02*
X62278Y-35539D01*
X62200Y-35461D02*
X62278Y-35461D01*
X62396Y-35264D02*
X62396Y-35382D01*
X62396Y-35382D02*
X62514Y-35382D01*
X62514Y-35264D02*
X62514Y-35382D01*
X62396Y-35264D02*
X62514Y-35264D01*
X62564Y-35254D02*
X62564Y-35343D01*
X62564Y-35343D02*
X62593Y-35343D01*
X62593Y-35254D02*
X62593Y-35343D01*
X62564Y-35254D02*
X62593Y-35254D01*
G54D19*
X62406Y-35726D02*
X61994Y-35726D01*
X62004Y-35274D02*
X62564Y-35274D01*
G54D20*
X62562Y-35323D02*
X62561Y-35328D01*
X62559Y-35333D01*
X62557Y-35338D01*
X62553Y-35342D01*
X62549Y-35346D01*
X62544Y-35348D01*
X62539Y-35350D01*
X62534Y-35350D01*
X62529Y-35350D01*
X62524Y-35348D01*
X62519Y-35346D01*
X62515Y-35343D01*
X62511Y-35338D01*
X62509Y-35334D01*
X62507Y-35328D01*
X62507Y-35323D01*
X62507Y-35318D01*
X62508Y-35313D01*
X62511Y-35308D01*
X62514Y-35304D01*
X62519Y-35301D01*
X62523Y-35298D01*
X62528Y-35296D01*
X62534Y-35296D01*
X62538Y-35296D01*
X62544Y-35297D01*
X62549Y-35300D01*
X62553Y-35303D01*
X62556Y-35307D01*
X62559Y-35312D01*
X62561Y-35317D01*
X62561Y-35323D01*
X62562Y-35323D01*
G54D19*
X62593Y-35363D02*
X62582Y-35364D01*
X62570Y-35366D01*
X62558Y-35368D01*
X62547Y-35372D01*
X62536Y-35376D01*
X62525Y-35382D01*
X62515Y-35388D01*
X62505Y-35396D01*
X62497Y-35404D01*
X62489Y-35412D01*
X62481Y-35422D01*
X62475Y-35432D01*
X62469Y-35443D01*
X62465Y-35454D01*
X62461Y-35465D01*
X62459Y-35477D01*
X62457Y-35489D01*
X62456Y-35500D01*
X62457Y-35511D01*
X62459Y-35523D01*
X62461Y-35535D01*
X62465Y-35546D01*
X62469Y-35557D01*
X62475Y-35568D01*
X62481Y-35578D01*
X62489Y-35588D01*
X62497Y-35596D01*
X62505Y-35604D01*
X62515Y-35612D01*
X62525Y-35618D01*
X62536Y-35624D01*
X62547Y-35628D01*
X62558Y-35632D01*
X62570Y-35634D01*
X62582Y-35636D01*
X62593Y-35637D01*
X61807Y-35637D02*
X61818Y-35636D01*
X61830Y-35634D01*
X61842Y-35632D01*
X61853Y-35628D01*
X61864Y-35624D01*
X61875Y-35618D01*
X61885Y-35612D01*
X61895Y-35604D01*
X61903Y-35596D01*
X61911Y-35588D01*
X61919Y-35578D01*
X61925Y-35568D01*
X61931Y-35557D01*
X61935Y-35546D01*
X61939Y-35535D01*
X61941Y-35523D01*
X61943Y-35511D01*
X61944Y-35500D01*
X61943Y-35489D01*
X61941Y-35477D01*
X61939Y-35465D01*
X61935Y-35454D01*
X61931Y-35443D01*
X61925Y-35432D01*
X61919Y-35422D01*
X61911Y-35412D01*
X61903Y-35404D01*
X61895Y-35396D01*
X61885Y-35388D01*
X61875Y-35382D01*
X61864Y-35376D01*
X61853Y-35372D01*
X61842Y-35368D01*
X61830Y-35366D01*
X61818Y-35364D01*
X61807Y-35363D01*
G54D21*
X57120Y-33200D02*
X59100Y-33200D01*
X59100Y-33200D02*
X59100Y-34200D01*
X59100Y-34200D02*
X57100Y-34200D01*
X57100Y-34200D02*
X57100Y-33200D01*
X57100Y-33450D02*
X57350Y-33200D01*
X57120Y-38000D02*
X59100Y-38000D01*
X59100Y-38000D02*
X59100Y-39000D01*
X59100Y-39000D02*
X57100Y-39000D01*
X57100Y-39000D02*
X57100Y-38000D01*
X57100Y-38250D02*
X57350Y-38000D01*
X57120Y-31200D02*
X59100Y-31200D01*
X59100Y-31200D02*
X59100Y-32200D01*
X59100Y-32200D02*
X57100Y-32200D01*
X57100Y-32200D02*
X57100Y-31200D01*
X57100Y-31450D02*
X57350Y-31200D01*
G54D14*
X59101Y-36500D02*
X59081Y-36694D01*
X59025Y-36881D01*
X58933Y-37053D01*
X58810Y-37205D01*
X58659Y-37329D01*
X58487Y-37422D01*
X58301Y-37480D01*
X58106Y-37500D01*
X57913Y-37483D01*
X57726Y-37428D01*
X57552Y-37337D01*
X57400Y-37215D01*
X57275Y-37065D01*
X57180Y-36894D01*
X57121Y-36708D01*
X57100Y-36513D01*
X57116Y-36320D01*
X57170Y-36132D01*
X57259Y-35958D01*
X57380Y-35805D01*
X57529Y-35679D01*
X57700Y-35583D01*
X57886Y-35523D01*
X58080Y-35500D01*
X58273Y-35515D01*
X58461Y-35567D01*
X58636Y-35655D01*
X58790Y-35776D01*
X58917Y-35923D01*
X59014Y-36093D01*
X59076Y-36279D01*
X59100Y-36473D01*
X59101Y-36500D01*
G54D12*
X61100Y-37500D02*
X60100Y-37500D01*
X60100Y-37500D02*
X60100Y-35500D01*
X60100Y-35500D02*
X61100Y-35500D01*
X61100Y-35500D02*
X61100Y-37500D01*
G54D13*
X53172Y-31725D02*
X49628Y-31725D01*
X53172Y-30347D02*
X49628Y-30347D01*
X49628Y-30347D02*
X49628Y-36056D01*
X49628Y-36056D02*
X53172Y-36056D01*
X53172Y-36056D02*
X53172Y-30347D01*
G54D22*
X53923Y-37838D02*
X53923Y-38029D01*
X53323Y-38029D01*
X53923Y-37705D02*
X53323Y-37705D01*
X53323Y-37610D01*
X53351Y-37552D01*
X53409Y-37514D01*
X53466Y-37495D01*
X53580Y-37476D01*
X53666Y-37476D01*
X53780Y-37495D01*
X53837Y-37514D01*
X53894Y-37552D01*
X53923Y-37610D01*
X53923Y-37705D01*
X53923Y-37095D02*
X53923Y-37324D01*
X53923Y-37210D02*
X53323Y-37210D01*
X53409Y-37248D01*
X53466Y-37286D01*
X53494Y-37324D01*
X53923Y-36714D02*
X53923Y-36943D01*
X53923Y-36829D02*
X53323Y-36829D01*
X53409Y-36867D01*
X53466Y-36905D01*
X53494Y-36943D01*
X53923Y-36333D02*
X53923Y-36562D01*
X53923Y-36448D02*
X53323Y-36448D01*
X53409Y-36486D01*
X53466Y-36524D01*
X53494Y-36562D01*
X53323Y-36200D02*
X53323Y-35933D01*
X53923Y-36105D01*
G54D14*
X63248Y-38601D02*
X63165Y-38482D01*
X63106Y-38601D02*
X63106Y-38351D01*
X63201Y-38351D01*
X63225Y-38363D01*
X63236Y-38375D01*
X63248Y-38399D01*
X63248Y-38435D01*
X63236Y-38458D01*
X63225Y-38470D01*
X63201Y-38482D01*
X63106Y-38482D01*
X63344Y-38375D02*
X63356Y-38363D01*
X63379Y-38351D01*
X63439Y-38351D01*
X63463Y-38363D01*
X63475Y-38375D01*
X63486Y-38399D01*
X63486Y-38423D01*
X63475Y-38458D01*
X63332Y-38601D01*
X63486Y-38601D01*
X63148Y-36451D02*
X63065Y-36332D01*
X63006Y-36451D02*
X63006Y-36201D01*
X63101Y-36201D01*
X63125Y-36213D01*
X63136Y-36225D01*
X63148Y-36249D01*
X63148Y-36285D01*
X63136Y-36308D01*
X63125Y-36320D01*
X63101Y-36332D01*
X63006Y-36332D01*
X63386Y-36451D02*
X63244Y-36451D01*
X63315Y-36451D02*
X63315Y-36201D01*
X63291Y-36237D01*
X63267Y-36261D01*
X63244Y-36273D01*
G54D12*
X59976Y-31003D02*
X60033Y-31022D01*
X60129Y-31022D01*
X60167Y-31003D01*
X60186Y-30984D01*
X60205Y-30946D01*
X60205Y-30908D01*
X60186Y-30870D01*
X60167Y-30850D01*
X60129Y-30831D01*
X60052Y-30812D01*
X60014Y-30793D01*
X59995Y-30774D01*
X59976Y-30736D01*
X59976Y-30698D01*
X59995Y-30660D01*
X60014Y-30641D01*
X60052Y-30622D01*
X60148Y-30622D01*
X60205Y-30641D01*
X60605Y-31022D02*
X60471Y-30831D01*
X60376Y-31022D02*
X60376Y-30622D01*
X60529Y-30622D01*
X60567Y-30641D01*
X60586Y-30660D01*
X60605Y-30698D01*
X60605Y-30755D01*
X60586Y-30793D01*
X60567Y-30812D01*
X60529Y-30831D01*
X60376Y-30831D01*
X61005Y-30984D02*
X60986Y-31003D01*
X60929Y-31022D01*
X60891Y-31022D01*
X60833Y-31003D01*
X60795Y-30965D01*
X60776Y-30927D01*
X60757Y-30850D01*
X60757Y-30793D01*
X60776Y-30717D01*
X60795Y-30679D01*
X60833Y-30641D01*
X60891Y-30622D01*
X60929Y-30622D01*
X60986Y-30641D01*
X61005Y-30660D01*
X61081Y-31060D02*
X61386Y-31060D01*
X61462Y-31003D02*
X61519Y-31022D01*
X61615Y-31022D01*
X61653Y-31003D01*
X61672Y-30984D01*
X61691Y-30946D01*
X61691Y-30908D01*
X61672Y-30870D01*
X61653Y-30850D01*
X61615Y-30831D01*
X61538Y-30812D01*
X61500Y-30793D01*
X61481Y-30774D01*
X61462Y-30736D01*
X61462Y-30698D01*
X61481Y-30660D01*
X61500Y-30641D01*
X61538Y-30622D01*
X61634Y-30622D01*
X61691Y-30641D01*
X61862Y-30812D02*
X61996Y-30812D01*
X62053Y-31022D02*
X61862Y-31022D01*
X61862Y-30622D01*
X62053Y-30622D01*
X62415Y-31022D02*
X62224Y-31022D01*
X62224Y-30622D01*
X62548Y-30812D02*
X62682Y-30812D01*
X62739Y-31022D02*
X62548Y-31022D01*
X62548Y-30622D01*
X62739Y-30622D01*
X63139Y-30984D02*
X63120Y-31003D01*
X63063Y-31022D01*
X63025Y-31022D01*
X62967Y-31003D01*
X62929Y-30965D01*
X62910Y-30927D01*
X62891Y-30850D01*
X62891Y-30793D01*
X62910Y-30717D01*
X62929Y-30679D01*
X62967Y-30641D01*
X63025Y-30622D01*
X63063Y-30622D01*
X63120Y-30641D01*
X63139Y-30660D01*
X63253Y-30622D02*
X63482Y-30622D01*
X63367Y-31022D02*
X63367Y-30622D01*
X59917Y-32702D02*
X60165Y-32702D01*
X60031Y-32854D01*
X60089Y-32854D01*
X60127Y-32873D01*
X60146Y-32892D01*
X60165Y-32930D01*
X60165Y-33026D01*
X60146Y-33064D01*
X60127Y-33083D01*
X60089Y-33102D01*
X59974Y-33102D01*
X59936Y-33083D01*
X59917Y-33064D01*
X60279Y-32702D02*
X60412Y-33102D01*
X60546Y-32702D01*
X60641Y-32702D02*
X60889Y-32702D01*
X60755Y-32854D01*
X60813Y-32854D01*
X60851Y-32873D01*
X60870Y-32892D01*
X60889Y-32930D01*
X60889Y-33026D01*
X60870Y-33064D01*
X60851Y-33083D01*
X60813Y-33102D01*
X60698Y-33102D01*
X60660Y-33083D01*
X60641Y-33064D01*
X60965Y-33140D02*
X61270Y-33140D01*
X61365Y-32892D02*
X61499Y-32892D01*
X61556Y-33102D02*
X61365Y-33102D01*
X61365Y-32702D01*
X61556Y-32702D01*
X61727Y-33102D02*
X61727Y-32702D01*
X61956Y-33102D01*
X61956Y-32702D01*
X62127Y-32988D02*
X62318Y-32988D01*
X62089Y-33102D02*
X62222Y-32702D01*
X62356Y-33102D01*
X62623Y-32892D02*
X62680Y-32911D01*
X62699Y-32930D01*
X62718Y-32969D01*
X62718Y-33026D01*
X62699Y-33064D01*
X62680Y-33083D01*
X62642Y-33102D01*
X62489Y-33102D01*
X62489Y-32702D01*
X62623Y-32702D01*
X62661Y-32721D01*
X62680Y-32740D01*
X62699Y-32778D01*
X62699Y-32816D01*
X62680Y-32854D01*
X62661Y-32873D01*
X62623Y-32892D01*
X62489Y-32892D01*
X63080Y-33102D02*
X62889Y-33102D01*
X62889Y-32702D01*
X63213Y-32892D02*
X63347Y-32892D01*
X63404Y-33102D02*
X63213Y-33102D01*
X63213Y-32702D01*
X63404Y-32702D01*
X49178Y-38364D02*
X49221Y-38379D01*
X49236Y-38393D01*
X49250Y-38421D01*
X49250Y-38464D01*
X49236Y-38493D01*
X49221Y-38507D01*
X49193Y-38521D01*
X49078Y-38521D01*
X49078Y-38221D01*
X49178Y-38221D01*
X49207Y-38236D01*
X49221Y-38250D01*
X49236Y-38279D01*
X49236Y-38307D01*
X49221Y-38336D01*
X49207Y-38350D01*
X49178Y-38364D01*
X49078Y-38364D01*
X49478Y-38364D02*
X49521Y-38379D01*
X49536Y-38393D01*
X49550Y-38421D01*
X49550Y-38464D01*
X49536Y-38493D01*
X49521Y-38507D01*
X49493Y-38521D01*
X49378Y-38521D01*
X49378Y-38221D01*
X49478Y-38221D01*
X49507Y-38236D01*
X49521Y-38250D01*
X49536Y-38279D01*
X49536Y-38307D01*
X49521Y-38336D01*
X49507Y-38350D01*
X49478Y-38364D01*
X49378Y-38364D01*
X49607Y-38550D02*
X49836Y-38550D01*
X50050Y-38521D02*
X49907Y-38521D01*
X49907Y-38221D01*
X50150Y-38521D02*
X50150Y-38221D01*
X50150Y-38364D02*
X50322Y-38364D01*
X50322Y-38521D02*
X50322Y-38221D01*
X50464Y-38521D02*
X50464Y-38221D01*
X50536Y-38221D01*
X50579Y-38236D01*
X50607Y-38264D01*
X50622Y-38293D01*
X50636Y-38350D01*
X50636Y-38393D01*
X50622Y-38450D01*
X50607Y-38479D01*
X50579Y-38507D01*
X50536Y-38521D01*
X50464Y-38521D01*
X50936Y-38521D02*
X50836Y-38379D01*
X50764Y-38521D02*
X50764Y-38221D01*
X50879Y-38221D01*
X50907Y-38236D01*
X50922Y-38250D01*
X50936Y-38279D01*
X50936Y-38321D01*
X50922Y-38350D01*
X50907Y-38364D01*
X50879Y-38379D01*
X50764Y-38379D01*
X66650Y-38364D02*
X66693Y-38379D01*
X66708Y-38393D01*
X66722Y-38421D01*
X66722Y-38464D01*
X66708Y-38493D01*
X66693Y-38507D01*
X66665Y-38521D01*
X66550Y-38521D01*
X66550Y-38221D01*
X66650Y-38221D01*
X66679Y-38236D01*
X66693Y-38250D01*
X66708Y-38279D01*
X66708Y-38307D01*
X66693Y-38336D01*
X66679Y-38350D01*
X66650Y-38364D01*
X66550Y-38364D01*
X66950Y-38364D02*
X66993Y-38379D01*
X67008Y-38393D01*
X67022Y-38421D01*
X67022Y-38464D01*
X67008Y-38493D01*
X66993Y-38507D01*
X66965Y-38521D01*
X66850Y-38521D01*
X66850Y-38221D01*
X66950Y-38221D01*
X66979Y-38236D01*
X66993Y-38250D01*
X67008Y-38279D01*
X67008Y-38307D01*
X66993Y-38336D01*
X66979Y-38350D01*
X66950Y-38364D01*
X66850Y-38364D01*
X67079Y-38550D02*
X67308Y-38550D01*
X67551Y-38521D02*
X67451Y-38379D01*
X67379Y-38521D02*
X67379Y-38221D01*
X67494Y-38221D01*
X67522Y-38236D01*
X67537Y-38250D01*
X67551Y-38279D01*
X67551Y-38321D01*
X67537Y-38350D01*
X67522Y-38364D01*
X67494Y-38379D01*
X67379Y-38379D01*
X67679Y-38521D02*
X67679Y-38221D01*
X67679Y-38364D02*
X67851Y-38364D01*
X67851Y-38521D02*
X67851Y-38221D01*
X67993Y-38521D02*
X67993Y-38221D01*
X68065Y-38221D01*
X68108Y-38236D01*
X68136Y-38264D01*
X68151Y-38293D01*
X68165Y-38350D01*
X68165Y-38393D01*
X68151Y-38450D01*
X68136Y-38479D01*
X68108Y-38507D01*
X68065Y-38521D01*
X67993Y-38521D01*
X68465Y-38521D02*
X68365Y-38379D01*
X68293Y-38521D02*
X68293Y-38221D01*
X68408Y-38221D01*
X68436Y-38236D01*
X68451Y-38250D01*
X68465Y-38279D01*
X68465Y-38321D01*
X68451Y-38350D01*
X68436Y-38364D01*
X68408Y-38379D01*
X68293Y-38379D01*
G54D22*
X53433Y-33395D02*
X53433Y-33128D01*
X54033Y-33300D01*
X53690Y-32919D02*
X53661Y-32957D01*
X53633Y-32976D01*
X53576Y-32995D01*
X53547Y-32995D01*
X53490Y-32976D01*
X53461Y-32957D01*
X53433Y-32919D01*
X53433Y-32842D01*
X53461Y-32804D01*
X53490Y-32785D01*
X53547Y-32766D01*
X53576Y-32766D01*
X53633Y-32785D01*
X53661Y-32804D01*
X53690Y-32842D01*
X53690Y-32919D01*
X53719Y-32957D01*
X53747Y-32976D01*
X53804Y-32995D01*
X53919Y-32995D01*
X53976Y-32976D01*
X54004Y-32957D01*
X54033Y-32919D01*
X54033Y-32842D01*
X54004Y-32804D01*
X53976Y-32785D01*
X53919Y-32766D01*
X53804Y-32766D01*
X53747Y-32785D01*
X53719Y-32804D01*
X53690Y-32842D01*
X53433Y-32519D02*
X53433Y-32480D01*
X53461Y-32442D01*
X53490Y-32423D01*
X53547Y-32404D01*
X53661Y-32385D01*
X53804Y-32385D01*
X53919Y-32404D01*
X53976Y-32423D01*
X54004Y-32442D01*
X54033Y-32480D01*
X54033Y-32519D01*
X54004Y-32557D01*
X53976Y-32576D01*
X53919Y-32595D01*
X53804Y-32614D01*
X53661Y-32614D01*
X53547Y-32595D01*
X53490Y-32576D01*
X53461Y-32557D01*
X53433Y-32519D01*
X53433Y-32023D02*
X53433Y-32214D01*
X53719Y-32233D01*
X53690Y-32214D01*
X53661Y-32176D01*
X53661Y-32080D01*
X53690Y-32042D01*
X53719Y-32023D01*
X53776Y-32004D01*
X53919Y-32004D01*
X53976Y-32023D01*
X54004Y-32042D01*
X54033Y-32080D01*
X54033Y-32176D01*
X54004Y-32214D01*
X53976Y-32233D01*
G54D14*
X63057Y-37471D02*
X63243Y-37471D01*
X63143Y-37586D01*
X63185Y-37586D01*
X63214Y-37600D01*
X63228Y-37614D01*
X63243Y-37643D01*
X63243Y-37714D01*
X63228Y-37743D01*
X63214Y-37757D01*
X63185Y-37771D01*
X63100Y-37771D01*
X63071Y-37757D01*
X63057Y-37743D01*
X63329Y-37471D02*
X63429Y-37771D01*
X63529Y-37471D01*
X63600Y-37471D02*
X63786Y-37471D01*
X63686Y-37586D01*
X63728Y-37586D01*
X63757Y-37600D01*
X63771Y-37614D01*
X63786Y-37643D01*
X63786Y-37714D01*
X63771Y-37743D01*
X63757Y-37757D01*
X63728Y-37771D01*
X63643Y-37771D01*
X63614Y-37757D01*
X63600Y-37743D01*
X63843Y-37800D02*
X64072Y-37800D01*
X64286Y-37771D02*
X64143Y-37771D01*
X64143Y-37471D01*
X64386Y-37614D02*
X64486Y-37614D01*
X64529Y-37771D02*
X64386Y-37771D01*
X64386Y-37471D01*
X64529Y-37471D01*
X64657Y-37771D02*
X64657Y-37471D01*
X64729Y-37471D01*
X64772Y-37486D01*
X64800Y-37514D01*
X64815Y-37543D01*
X64829Y-37600D01*
X64829Y-37643D01*
X64815Y-37700D01*
X64800Y-37729D01*
X64772Y-37757D01*
X64729Y-37771D01*
X64657Y-37771D01*
X63221Y-35321D02*
X63078Y-35321D01*
X63064Y-35464D01*
X63078Y-35450D01*
X63107Y-35436D01*
X63178Y-35436D01*
X63207Y-35450D01*
X63221Y-35464D01*
X63236Y-35493D01*
X63236Y-35564D01*
X63221Y-35593D01*
X63207Y-35607D01*
X63178Y-35621D01*
X63107Y-35621D01*
X63078Y-35607D01*
X63064Y-35593D01*
X63322Y-35321D02*
X63422Y-35621D01*
X63522Y-35321D01*
X63550Y-35650D02*
X63779Y-35650D01*
X63993Y-35621D02*
X63850Y-35621D01*
X63850Y-35321D01*
X64093Y-35464D02*
X64193Y-35464D01*
X64236Y-35621D02*
X64093Y-35621D01*
X64093Y-35321D01*
X64236Y-35321D01*
X64364Y-35621D02*
X64364Y-35321D01*
X64436Y-35321D01*
X64479Y-35336D01*
X64507Y-35364D01*
X64522Y-35393D01*
X64536Y-35450D01*
X64536Y-35493D01*
X64522Y-35550D01*
X64507Y-35579D01*
X64479Y-35607D01*
X64436Y-35621D01*
X64364Y-35621D01*
G54D22*
X57424Y-32562D02*
X57463Y-32562D01*
X57501Y-32581D01*
X57520Y-32600D01*
X57539Y-32638D01*
X57558Y-32714D01*
X57558Y-32810D01*
X57539Y-32886D01*
X57520Y-32924D01*
X57501Y-32943D01*
X57463Y-32962D01*
X57424Y-32962D01*
X57386Y-32943D01*
X57367Y-32924D01*
X57348Y-32886D01*
X57329Y-32810D01*
X57329Y-32714D01*
X57348Y-32638D01*
X57367Y-32600D01*
X57386Y-32581D01*
X57424Y-32562D01*
X57729Y-32924D02*
X57748Y-32943D01*
X57729Y-32962D01*
X57710Y-32943D01*
X57729Y-32924D01*
X57729Y-32962D01*
X57881Y-32562D02*
X58129Y-32562D01*
X57995Y-32714D01*
X58053Y-32714D01*
X58091Y-32733D01*
X58110Y-32752D01*
X58129Y-32790D01*
X58129Y-32886D01*
X58110Y-32924D01*
X58091Y-32943D01*
X58053Y-32962D01*
X57938Y-32962D01*
X57900Y-32943D01*
X57881Y-32924D01*
X58262Y-32562D02*
X58510Y-32562D01*
X58376Y-32714D01*
X58434Y-32714D01*
X58472Y-32733D01*
X58491Y-32752D01*
X58510Y-32790D01*
X58510Y-32886D01*
X58491Y-32924D01*
X58472Y-32943D01*
X58434Y-32962D01*
X58319Y-32962D01*
X58281Y-32943D01*
X58262Y-32924D01*
X58853Y-32695D02*
X58853Y-32962D01*
X58681Y-32695D02*
X58681Y-32905D01*
X58700Y-32943D01*
X58738Y-32962D01*
X58796Y-32962D01*
X58834Y-32943D01*
X58853Y-32924D01*
X57614Y-39142D02*
X57653Y-39142D01*
X57691Y-39161D01*
X57710Y-39180D01*
X57729Y-39218D01*
X57748Y-39294D01*
X57748Y-39390D01*
X57729Y-39466D01*
X57710Y-39504D01*
X57691Y-39523D01*
X57653Y-39542D01*
X57614Y-39542D01*
X57576Y-39523D01*
X57557Y-39504D01*
X57538Y-39466D01*
X57519Y-39390D01*
X57519Y-39294D01*
X57538Y-39218D01*
X57557Y-39180D01*
X57576Y-39161D01*
X57614Y-39142D01*
X57919Y-39504D02*
X57938Y-39523D01*
X57919Y-39542D01*
X57900Y-39523D01*
X57919Y-39504D01*
X57919Y-39542D01*
X58319Y-39542D02*
X58090Y-39542D01*
X58204Y-39542D02*
X58204Y-39142D01*
X58166Y-39199D01*
X58128Y-39237D01*
X58090Y-39256D01*
X58662Y-39275D02*
X58662Y-39542D01*
X58490Y-39275D02*
X58490Y-39485D01*
X58509Y-39523D01*
X58547Y-39542D01*
X58605Y-39542D01*
X58643Y-39523D01*
X58662Y-39504D01*
X57614Y-30562D02*
X57653Y-30562D01*
X57691Y-30581D01*
X57710Y-30600D01*
X57729Y-30638D01*
X57748Y-30714D01*
X57748Y-30810D01*
X57729Y-30886D01*
X57710Y-30924D01*
X57691Y-30943D01*
X57653Y-30962D01*
X57614Y-30962D01*
X57576Y-30943D01*
X57557Y-30924D01*
X57538Y-30886D01*
X57519Y-30810D01*
X57519Y-30714D01*
X57538Y-30638D01*
X57557Y-30600D01*
X57576Y-30581D01*
X57614Y-30562D01*
X57919Y-30924D02*
X57938Y-30943D01*
X57919Y-30962D01*
X57900Y-30943D01*
X57919Y-30924D01*
X57919Y-30962D01*
X58319Y-30962D02*
X58090Y-30962D01*
X58204Y-30962D02*
X58204Y-30562D01*
X58166Y-30619D01*
X58128Y-30657D01*
X58090Y-30676D01*
X58662Y-30695D02*
X58662Y-30962D01*
X58490Y-30695D02*
X58490Y-30905D01*
X58509Y-30943D01*
X58547Y-30962D01*
X58605Y-30962D01*
X58643Y-30943D01*
X58662Y-30924D01*
G54D14*
X56941Y-36671D02*
X56941Y-36813D01*
X56941Y-36742D02*
X56641Y-36742D01*
X56684Y-36766D01*
X56713Y-36790D01*
X56727Y-36813D01*
X56641Y-36516D02*
X56641Y-36492D01*
X56656Y-36468D01*
X56670Y-36456D01*
X56699Y-36444D01*
X56756Y-36433D01*
X56827Y-36433D01*
X56884Y-36444D01*
X56913Y-36456D01*
X56927Y-36468D01*
X56941Y-36492D01*
X56941Y-36516D01*
X56927Y-36540D01*
X56913Y-36552D01*
X56884Y-36563D01*
X56827Y-36575D01*
X56756Y-36575D01*
X56699Y-36563D01*
X56670Y-36552D01*
X56656Y-36540D01*
X56641Y-36516D01*
X56741Y-36218D02*
X56941Y-36218D01*
X56741Y-36325D02*
X56899Y-36325D01*
X56927Y-36314D01*
X56941Y-36290D01*
X56941Y-36254D01*
X56927Y-36230D01*
X56913Y-36218D01*
G54D11*
X58107Y-37514D02*
X58107Y-37285D01*
X58221Y-37399D02*
X57993Y-37399D01*
G54D12*
X59671Y-37414D02*
X59671Y-37228D01*
X59786Y-37328D01*
X59786Y-37286D01*
X59800Y-37257D01*
X59814Y-37243D01*
X59843Y-37228D01*
X59914Y-37228D01*
X59943Y-37243D01*
X59957Y-37257D01*
X59971Y-37286D01*
X59971Y-37371D01*
X59957Y-37400D01*
X59943Y-37414D01*
X59671Y-37142D02*
X59971Y-37042D01*
X59671Y-36942D01*
X59671Y-36871D02*
X59671Y-36685D01*
X59786Y-36785D01*
X59786Y-36743D01*
X59800Y-36714D01*
X59814Y-36700D01*
X59843Y-36685D01*
X59914Y-36685D01*
X59943Y-36700D01*
X59957Y-36714D01*
X59971Y-36743D01*
X59971Y-36828D01*
X59957Y-36857D01*
X59943Y-36871D01*
X60000Y-36628D02*
X60000Y-36399D01*
X59671Y-36270D02*
X59671Y-36213D01*
X59686Y-36185D01*
X59714Y-36156D01*
X59771Y-36142D01*
X59871Y-36142D01*
X59929Y-36156D01*
X59957Y-36185D01*
X59971Y-36213D01*
X59971Y-36270D01*
X59957Y-36299D01*
X59929Y-36328D01*
X59871Y-36342D01*
X59771Y-36342D01*
X59714Y-36328D01*
X59686Y-36299D01*
X59671Y-36270D01*
X59671Y-36014D02*
X59914Y-36014D01*
X59943Y-35999D01*
X59957Y-35985D01*
X59971Y-35956D01*
X59971Y-35899D01*
X59957Y-35871D01*
X59943Y-35856D01*
X59914Y-35842D01*
X59671Y-35842D01*
X59671Y-35742D02*
X59671Y-35571D01*
X59971Y-35657D02*
X59671Y-35657D01*
G54D21*
X53405Y-32673D02*
X53833Y-32673D01*
X53919Y-32701D01*
X53976Y-32758D01*
X54005Y-32844D01*
X54005Y-32901D01*
X54005Y-32073D02*
X54005Y-32416D01*
X54005Y-32244D02*
X53405Y-32244D01*
X53491Y-32301D01*
X53548Y-32359D01*
X53576Y-32416D01*
M02*
