G04 (created by PCBNEW-RS274X (2011-nov-30)-stable) date Mit 25 Apr 2012 20:51:04 CEST*
G01*
G70*
G90*
%MOIN*%
G04 Gerber Fmt 3.4, Leading zero omitted, Abs format*
%FSLAX34Y34*%
G04 APERTURE LIST*
%ADD10C,0.001000*%
%ADD11C,0.090000*%
%ADD12R,0.090000X0.090000*%
%ADD13R,0.055000X0.075000*%
%ADD14R,0.080000X0.080000*%
%ADD15C,0.080000*%
%ADD16R,0.067200X0.067200*%
%ADD17C,0.075000*%
%ADD18R,0.075000X0.075000*%
%ADD19R,0.039700X0.110600*%
%ADD20R,0.098700X0.118400*%
%ADD21C,0.055400*%
%ADD22R,0.157800X0.157800*%
G04 APERTURE END LIST*
G54D10*
G54D11*
X55300Y-38000D03*
X55300Y-37000D03*
G54D12*
X55300Y-36000D03*
G54D13*
X62615Y-38500D03*
X61865Y-38500D03*
X62615Y-36350D03*
X61865Y-36350D03*
G54D14*
X60600Y-31700D03*
G54D15*
X61600Y-31700D03*
X62600Y-31700D03*
G54D14*
X62600Y-33800D03*
G54D15*
X61600Y-33800D03*
X60600Y-33800D03*
G54D14*
X50469Y-39252D03*
G54D15*
X49469Y-39252D03*
G54D14*
X68028Y-39252D03*
G54D15*
X67028Y-39252D03*
G54D11*
X55300Y-33700D03*
G54D12*
X55300Y-32700D03*
G54D11*
X55300Y-31700D03*
G54D16*
X61787Y-37650D03*
X62613Y-37650D03*
X61787Y-35500D03*
X62613Y-35500D03*
G54D17*
X57600Y-33700D03*
X58600Y-33700D03*
X57600Y-38500D03*
X58600Y-38500D03*
X57600Y-31700D03*
X58600Y-31700D03*
G54D18*
X58100Y-37000D03*
G54D17*
X58100Y-36000D03*
G54D14*
X60600Y-37000D03*
G54D15*
X60600Y-36000D03*
G54D19*
X67528Y-33641D03*
X67213Y-33641D03*
X66898Y-33641D03*
X66583Y-33641D03*
X66268Y-33641D03*
G54D20*
X68650Y-33602D03*
X68650Y-31437D03*
X65146Y-33602D03*
X65146Y-31437D03*
G54D21*
X67764Y-32618D03*
X66032Y-32618D03*
G54D22*
X51400Y-35741D03*
X51400Y-33379D03*
X49550Y-34560D03*
M02*
